<svg width="612" height="169" viewBox="0 0 612 169" fill="none" xmlns="http://www.w3.org/2000/svg">
    <g filter="url(#filter0_d_2143_45744)">
        <path d="M606.999 76.4062C606.999 -2.27172 430.658 20.8385 314.927 6.82326C159.498 -11.9995 20.9947 18.4754 20.9947 87.9723C20.9947 98.2039 23.9807 106.773 29.5718 113.946C22.0719 125.597 -8.02427 155.457 10.8227 159.762C24.9985 163 77.1795 145.249 95.0096 143.042C159.998 135 204.928 141.149 274.458 150.356C377.498 164 606.999 174.426 606.999 76.4062Z" fill="white"/>
        <path d="M606.999 76.4062C606.999 -2.27172 430.658 20.8385 314.927 6.82326C159.498 -11.9995 20.9947 18.4754 20.9947 87.9723C20.9947 98.2039 23.9807 106.773 29.5718 113.946C22.0719 125.597 -8.02427 155.457 10.8227 159.762C24.9985 163 77.1795 145.249 95.0096 143.042C159.998 135 204.928 141.149 274.458 150.356C377.498 164 606.999 174.426 606.999 76.4062Z" stroke="#C6CDD2"/>
    </g>
    <defs>
        <filter id="filter0_d_2143_45744" x="0.214844" y="0.859375" width="611.285" height="167.797" filterUnits="userSpaceOnUse" color-interpolation-filters="sRGB">
            <feFlood flood-opacity="0" result="BackgroundImageFix"/>
            <feColorMatrix in="SourceAlpha" type="matrix" values="0 0 0 0 0 0 0 0 0 0 0 0 0 0 0 0 0 0 127 0" result="hardAlpha"/>
            <feOffset dy="4"/>
            <feGaussianBlur stdDeviation="2"/>
            <feColorMatrix type="matrix" values="0 0 0 0 0 0 0 0 0 0 0 0 0 0 0 0 0 0 0.24 0"/>
            <feBlend mode="normal" in2="BackgroundImageFix" result="effect1_dropShadow_2143_45744"/>
            <feBlend mode="normal" in="SourceGraphic" in2="effect1_dropShadow_2143_45744" result="shape"/>
        </filter>
    </defs>
</svg>
