<svg width="34" height="34" viewBox="0 0 34 34" fill="none" xmlns="http://www.w3.org/2000/svg">
    <rect width="34" height="34" rx="4" fill="#FFE8E0"/>
    <path d="M19.5508 8.12891C20.3792 8.12891 21.1341 7.33038 21.1341 6.50195C21.1341 5.67353 20.512 5 19.6836 5C18.8552 5 18.0391 5.58173 18.0391 6.41016C18.0391 7.23858 18.7224 8.12891 19.5508 8.12891Z" fill="#8A695E"/>
    <path d="M28.7097 14.7706C27.152 15.5312 25.8684 15.2367 24.6587 13.6627C23.4514 15.7292 20.535 15.2473 20.535 12.4269C17.9848 13.5429 14.4931 12.3438 16.5995 7.71923C14.2695 8.54295 12.6209 7.8859 12.6209 5.89819L12.0352 6.08209C8.26862 7.94081 6 11.2986 6 16.0001C6 22.6275 11.1487 28.0001 17.5 28.0001C23.8513 28.0001 28.8748 21.9784 28.8748 15.351L28.7097 14.7706Z" fill="#8A695E"/>
    <path d="M24.4371 10.1859C24.4886 11.1521 23.8106 11.7792 22.9048 11.8839C22.0643 11.9811 21.3086 11.0143 21.3086 10.1859C21.3086 9.35743 22.0388 8.77344 22.8672 8.77344C23.7986 8.77344 24.3991 9.47218 24.4371 10.1859Z" fill="#8A695E"/>
    <path d="M26.8296 9.63289C28.0677 9.4319 28.98 8.59939 28.9216 7.32192C28.8714 6.22266 27.921 5.54053 26.7411 5.54053C25.696 5.54053 24.6094 6.33055 24.6094 7.51046C24.6094 8.69038 25.5593 9.63289 26.8296 9.63289Z" fill="#8A695E"/>
    <path d="M19.4004 8.13599C20.2288 8.13599 20.9004 7.46441 20.9004 6.63599C20.9004 5.80756 20.2288 5.13599 19.4004 5.13599C18.572 5.13599 17.9004 5.80756 17.9004 6.63599C17.9004 7.46441 18.572 8.13599 19.4004 8.13599Z" fill="#FFAD80"/>
    <path d="M18.5 14C19.0388 14 19.5492 13.8782 20.0051 13.6607C20.088 14.9665 21.1733 16 22.5 16C23.3936 16 24.1776 15.5312 24.6197 14.8261C25.1681 15.5399 26.0303 16 27 16C27.7142 16 28.3701 15.7504 28.8853 15.3337C28.9609 15.8783 29 16.4345 29 16.9999C29 23.6273 23.6274 28.9999 17 28.9999C10.3726 28.9999 5 23.6273 5 16.9999C5 12.1426 7.8859 7.95941 12.0366 6.07129C12.0125 6.21056 12 6.35378 12 6.49993C12 7.88064 13.1193 8.99993 14.5 8.99993C14.8278 8.99993 15.1408 8.93686 15.4276 8.82219C15.155 9.32035 15 9.89205 15 10.5C15 12.433 16.567 14 18.5 14Z" fill="#FFAD80"/>
    <path d="M24.1836 10.4128C24.1836 11.2413 23.512 11.9128 22.6836 11.9128C21.8552 11.9128 21.1836 11.2413 21.1836 10.4128C21.1836 9.58441 21.8552 8.91284 22.6836 8.91284C23.512 8.91284 24.1836 9.58441 24.1836 10.4128Z" fill="#FFAD80"/>
    <path d="M26.4863 9.68286C27.5909 9.68286 28.4863 8.78743 28.4863 7.68286C28.4863 6.57829 27.5909 5.68286 26.4863 5.68286C25.3818 5.68286 24.4863 6.57829 24.4863 7.68286C24.4863 8.78743 25.3818 9.68286 26.4863 9.68286Z" fill="#FFAD80"/>
    <path d="M13 12C13 13.1046 12.1046 14 11 14C9.89543 14 9 13.1046 9 12C9 10.8954 9.89543 10 11 10C12.1046 10 13 10.8954 13 12Z" fill="#C27C55"/>
    <path d="M25 21.5C25 22.8807 23.8807 24 22.5 24C21.1193 24 20 22.8807 20 21.5C20 20.1193 21.1193 19 22.5 19C23.8807 19 25 20.1193 25 21.5Z" fill="#C27C55"/>
    <path d="M10 22C11.1046 22 12 21.1046 12 20C12 18.8954 11.1046 18 10 18C8.89543 18 8 18.8954 8 20C8 21.1046 8.89543 22 10 22Z" fill="#C27C55"/>
    <path d="M18 17C18 17.5523 17.5523 18 17 18C16.4477 18 16 17.5523 16 17C16 16.4477 16.4477 16 17 16C17.5523 16 18 16.4477 18 17Z" fill="#C27C55"/>
    <path d="M15.5 26C16.3284 26 17 25.3284 17 24.5C17 23.6716 16.3284 23 15.5 23C14.6716 23 14 23.6716 14 24.5C14 25.3284 14.6716 26 15.5 26Z" fill="#C27C55"/>
</svg>
