<svg width="250" height="72" viewBox="0 0 250 72" fill="none" xmlns="http://www.w3.org/2000/svg">
    <path fill-rule="evenodd" clip-rule="evenodd" d="M26.8794 13.1927L39.4264 25.7394L24.5194 40.6484L18.0977 34.2267L13.8166 38.5078L24.5194 49.2106L43.7083 30.0212L46.8073 33.1206C48.3976 34.7108 48.3976 37.2892 46.8073 38.8794L26.8794 58.8073C25.2892 60.3976 22.7108 60.3976 21.1206 58.8073L1.1927 38.8794C-0.397567 37.2892 -0.397567 34.7108 1.1927 33.1206L21.1206 13.1927C22.7108 11.6024 25.2892 11.6024 26.8794 13.1927Z" fill="#0C66FF"/>
    <path d="M72.7344 42.7266H63.4883L61.7305 48H56.123L65.6504 22.4062H70.5371L80.1172 48H74.5098L72.7344 42.7266ZM64.9121 38.4551H71.3105L68.0938 28.875L64.9121 38.4551ZM87.5352 48H82.4375V21H87.5352V48ZM97.0977 48H92V21H97.0977V48ZM100.508 38.3496C100.508 35.3848 101.17 33.0234 102.494 31.2656C103.83 29.5078 105.652 28.6289 107.961 28.6289C109.812 28.6289 111.342 29.3203 112.549 30.7031V21H117.646V48H113.059L112.812 45.9785C111.547 47.5605 109.918 48.3516 107.926 48.3516C105.688 48.3516 103.889 47.4727 102.529 45.7148C101.182 43.9453 100.508 41.4902 100.508 38.3496ZM105.588 38.7188C105.588 40.5 105.898 41.8652 106.52 42.8145C107.141 43.7637 108.043 44.2383 109.227 44.2383C110.797 44.2383 111.904 43.5762 112.549 42.252V34.7461C111.916 33.4219 110.82 32.7598 109.262 32.7598C106.812 32.7598 105.588 34.7461 105.588 38.7188ZM120.793 38.3145C120.793 36.4277 121.156 34.7461 121.883 33.2695C122.609 31.793 123.652 30.6504 125.012 29.8418C126.383 29.0332 127.971 28.6289 129.775 28.6289C132.342 28.6289 134.434 29.4141 136.051 30.9844C137.68 32.5547 138.588 34.6875 138.775 37.3828L138.811 38.6836C138.811 41.6016 137.996 43.9453 136.367 45.7148C134.738 47.4727 132.553 48.3516 129.811 48.3516C127.068 48.3516 124.877 47.4727 123.236 45.7148C121.607 43.957 120.793 41.5664 120.793 38.543V38.3145ZM125.873 38.6836C125.873 40.4883 126.213 41.8711 126.893 42.832C127.572 43.7812 128.545 44.2559 129.811 44.2559C131.041 44.2559 132.002 43.7871 132.693 42.8496C133.385 41.9004 133.73 40.3887 133.73 38.3145C133.73 36.5449 133.385 35.1738 132.693 34.2012C132.002 33.2285 131.029 32.7422 129.775 32.7422C128.533 32.7422 127.572 33.2285 126.893 34.2012C126.213 35.1621 125.873 36.6562 125.873 38.6836ZM146.615 28.9805L146.773 31.1777C148.133 29.4785 149.955 28.6289 152.24 28.6289C154.256 28.6289 155.756 29.2207 156.74 30.4043C157.725 31.5879 158.229 33.3574 158.252 35.7129V48H153.172V35.8359C153.172 34.7578 152.938 33.9785 152.469 33.498C152 33.0059 151.221 32.7598 150.131 32.7598C148.701 32.7598 147.629 33.3691 146.914 34.5879V48H141.834V28.9805H146.615ZM170.873 48.3516C168.084 48.3516 165.811 47.4961 164.053 45.7852C162.307 44.0742 161.434 41.7949 161.434 38.9473V38.4551C161.434 36.5449 161.803 34.8398 162.541 33.3398C163.279 31.8281 164.322 30.668 165.67 29.8594C167.029 29.0391 168.576 28.6289 170.311 28.6289C172.912 28.6289 174.957 29.4492 176.445 31.0898C177.945 32.7305 178.695 35.0566 178.695 38.0684V40.1426H166.584C166.748 41.3848 167.24 42.3809 168.061 43.1309C168.893 43.8809 169.941 44.2559 171.207 44.2559C173.164 44.2559 174.693 43.5469 175.795 42.1289L178.291 44.9238C177.529 46.002 176.498 46.8457 175.197 47.4551C173.896 48.0527 172.455 48.3516 170.873 48.3516ZM170.293 32.7422C169.285 32.7422 168.465 33.082 167.832 33.7617C167.211 34.4414 166.812 35.4141 166.637 36.6797H173.703V36.2754C173.68 35.1504 173.375 34.2832 172.789 33.6738C172.203 33.0527 171.371 32.7422 170.293 32.7422ZM181.859 45.5039C181.859 44.6953 182.129 44.0391 182.668 43.5352C183.219 43.0312 183.904 42.7793 184.725 42.7793C185.557 42.7793 186.242 43.0312 186.781 43.5352C187.332 44.0391 187.607 44.6953 187.607 45.5039C187.607 46.3008 187.338 46.9512 186.799 47.4551C186.26 47.9473 185.568 48.1934 184.725 48.1934C183.893 48.1934 183.207 47.9473 182.668 47.4551C182.129 46.9512 181.859 46.3008 181.859 45.5039ZM203.094 48C202.859 47.543 202.689 46.9746 202.584 46.2949C201.354 47.666 199.754 48.3516 197.785 48.3516C195.922 48.3516 194.375 47.8125 193.145 46.7344C191.926 45.6562 191.316 44.2969 191.316 42.6562C191.316 40.6406 192.061 39.0938 193.549 38.0156C195.049 36.9375 197.211 36.3926 200.035 36.3809H202.373V35.291C202.373 34.4121 202.145 33.709 201.688 33.1816C201.242 32.6543 200.533 32.3906 199.561 32.3906C198.705 32.3906 198.031 32.5957 197.539 33.0059C197.059 33.416 196.818 33.9785 196.818 34.6934H191.738C191.738 33.5918 192.078 32.5723 192.758 31.6348C193.438 30.6973 194.398 29.9648 195.641 29.4375C196.883 28.8984 198.277 28.6289 199.824 28.6289C202.168 28.6289 204.025 29.2207 205.396 30.4043C206.779 31.5762 207.471 33.2285 207.471 35.3613V43.6055C207.482 45.4102 207.734 46.7754 208.227 47.7012V48H203.094ZM198.893 44.4668C199.643 44.4668 200.334 44.3027 200.967 43.9746C201.6 43.6348 202.068 43.1836 202.373 42.6211V39.3516H200.475C197.932 39.3516 196.578 40.2305 196.414 41.9883L196.396 42.2871C196.396 42.9199 196.619 43.4414 197.064 43.8516C197.51 44.2617 198.119 44.4668 198.893 44.4668ZM228.494 38.666C228.494 41.5957 227.826 43.9453 226.49 45.7148C225.166 47.4727 223.373 48.3516 221.111 48.3516C219.189 48.3516 217.637 47.6836 216.453 46.3477V55.3125H211.373V28.9805H216.084L216.26 30.8438C217.49 29.3672 219.096 28.6289 221.076 28.6289C223.42 28.6289 225.242 29.4961 226.543 31.2305C227.844 32.9648 228.494 35.3555 228.494 38.4023V38.666ZM223.414 38.2969C223.414 36.5273 223.098 35.1621 222.465 34.2012C221.844 33.2402 220.936 32.7598 219.74 32.7598C218.146 32.7598 217.051 33.3691 216.453 34.5879V42.375C217.074 43.6289 218.182 44.2559 219.775 44.2559C222.201 44.2559 223.414 42.2695 223.414 38.2969ZM248.779 38.666C248.779 41.5957 248.111 43.9453 246.775 45.7148C245.451 47.4727 243.658 48.3516 241.396 48.3516C239.475 48.3516 237.922 47.6836 236.738 46.3477V55.3125H231.658V28.9805H236.369L236.545 30.8438C237.775 29.3672 239.381 28.6289 241.361 28.6289C243.705 28.6289 245.527 29.4961 246.828 31.2305C248.129 32.9648 248.779 35.3555 248.779 38.4023V38.666ZM243.699 38.2969C243.699 36.5273 243.383 35.1621 242.75 34.2012C242.129 33.2402 241.221 32.7598 240.025 32.7598C238.432 32.7598 237.336 33.3691 236.738 34.5879V42.375C237.359 43.6289 238.467 44.2559 240.061 44.2559C242.486 44.2559 243.699 42.2695 243.699 38.2969Z" fill="#0C66FF"/>
</svg>
