<svg width="350" height="194" viewBox="0 0 350 194" fill="none" xmlns="http://www.w3.org/2000/svg">
    <g filter="url(#filter0_d_2158_51053)">
        <path d="M263.193 144.503C347.357 148.102 343.923 102.404 345 79.429C348 15.4297 233.784 21.3098 162.5 7.92898C31.5 -16.6613 5 27.3376 5 90.429C5 143.476 72 131.43 142.5 141.93C172.39 146.381 180 178.93 202.5 184.93C216.994 188.795 217.08 142.531 263.193 144.503Z" fill="white"/>
        <path d="M263.193 144.503C347.357 148.102 343.923 102.404 345 79.429C348 15.4297 233.784 21.3098 162.5 7.92898C31.5 -16.6613 5 27.3376 5 90.429C5 143.476 72 131.43 142.5 141.93C172.39 146.381 180 178.93 202.5 184.93C216.994 188.795 217.08 142.531 263.193 144.503Z" stroke="#C6CDD2"/>
    </g>
    <defs>
        <filter id="filter0_d_2158_51053" x="0.5" y="0.5" width="349.059" height="193.16" filterUnits="userSpaceOnUse" color-interpolation-filters="sRGB">
            <feFlood flood-opacity="0" result="BackgroundImageFix"/>
            <feColorMatrix in="SourceAlpha" type="matrix" values="0 0 0 0 0 0 0 0 0 0 0 0 0 0 0 0 0 0 127 0" result="hardAlpha"/>
            <feOffset dy="4"/>
            <feGaussianBlur stdDeviation="2"/>
            <feColorMatrix type="matrix" values="0 0 0 0 0 0 0 0 0 0 0 0 0 0 0 0 0 0 0.24 0"/>
            <feBlend mode="normal" in2="BackgroundImageFix" result="effect1_dropShadow_2158_51053"/>
            <feBlend mode="normal" in="SourceGraphic" in2="effect1_dropShadow_2158_51053" result="shape"/>
        </filter>
    </defs>
</svg>
