<svg width="268" height="69" viewBox="0 0 268 69" fill="none" xmlns="http://www.w3.org/2000/svg">
<path fill-rule="evenodd" clip-rule="evenodd" d="M0 69H103.366V0H0V69Z" fill="#174489"/>
<path fill-rule="evenodd" clip-rule="evenodd" d="M49.4818 15.0335L51.663 13.4398L53.8441 15.0335L53.0141 12.456L55.2294 10.8623H52.4988L51.663 8.25342L50.8271 10.8652L48.0984 10.8623L50.3118 12.456L49.4818 15.0335ZM38.1948 18.7437L40.376 17.149L42.5551 18.7437L41.7261 16.1661L43.9405 13.8989L41.2099 14.5724L40.374 11.9606L39.5381 14.5744L36.8095 14.5724L39.0229 16.1661L38.1948 18.7437ZM32.1167 20.2483L31.2808 22.863L28.5512 22.8601L30.7656 24.4538L29.9356 27.0313L32.1167 25.4376L34.2979 27.0313L33.4679 24.4538L35.6813 22.8601H32.9526L32.1167 20.2483ZM29.087 36.7256L31.2662 38.3193L30.4381 35.7418L32.6515 34.1481H29.9229L29.087 31.5363L28.2511 34.153L25.5205 34.1481L27.7359 35.7418L26.9058 38.3193L29.087 36.7256ZM32.9526 45.4695L32.1167 42.8587L31.2808 45.4734L28.5512 45.4695L30.7656 47.0641L29.9356 49.6417L32.1167 48.045L34.2979 49.6417L33.4679 47.0641L35.6813 45.4695H32.9526ZM41.2265 53.7551L40.3916 51.1463L39.5567 53.7581L36.8261 53.7551L39.0405 55.3498L38.2114 57.9264L40.3926 56.3327L42.5718 57.9264L41.7437 55.3498L43.9571 53.0836L41.2265 53.7551ZM52.4998 56.085L51.6639 53.4732L50.83 56.0879L48.0994 56.085L50.3138 57.6787L49.4847 60.2562L51.6659 58.6625L53.8451 60.2562L53.016 57.6787L55.2304 56.085H52.4998ZM63.7731 53.0836L62.9392 50.4738L62.1023 53.0856L59.3737 53.0836L61.5861 54.6763L60.7581 57.2538L62.9392 55.6601L65.1204 57.2538L64.2884 54.6763L66.5037 53.0836H63.7731ZM72.0509 44.7969L71.2131 42.1852L70.3762 44.7999L67.6486 44.7969L69.8649 46.3916L69.0329 48.9682L71.2131 47.3715L73.3942 48.9682L72.5642 46.3916L74.7786 44.7969H72.0509ZM78.4487 33.4433H75.0465L74.2096 30.8325L73.3757 33.4472L70.6451 33.4433L72.8585 35.037L72.0314 37.6145L74.2096 36.0179L76.3907 37.6145L75.5617 35.037L78.4487 33.4433ZM69.0329 26.3245L71.2131 24.7298L73.3942 26.3245L72.5642 23.746L74.7786 22.1562H72.0509L71.2131 19.5444L70.3762 22.1591L67.6486 22.1562L69.8649 23.746L69.0329 26.3245ZM62.9705 11.2891L62.1366 13.9038L59.405 13.8989L61.6174 15.4956L60.7893 18.0721L62.9734 16.4755L65.1516 18.0721L64.3226 15.4956L66.5389 13.8989H63.8054L62.9705 11.2891Z" fill="#FFF101"/>
<path d="M121.499 16.2658V15.0481H115.172V11.5356H120.873V10.3247H115.172V7.16276H121.26V5.94595H113.808V16.2658H121.499V16.2658ZM127.482 16.4421C128.476 16.4421 129.279 16.2512 129.89 15.8684C130.502 15.4866 130.925 14.9893 131.159 14.3804C131.394 13.7696 131.511 12.9453 131.511 11.9086V5.94595H130.147V11.9018C130.147 13.1969 129.934 14.0721 129.507 14.5273C129.081 14.9825 128.366 15.2106 127.363 15.2106C126.776 15.2106 126.282 15.095 125.877 14.865C125.47 14.6349 125.185 14.308 125.018 13.8831C124.852 13.4583 124.768 12.7975 124.768 11.9018V5.94595H123.404V11.9086C123.404 13.0021 123.536 13.8645 123.798 14.4959C124.061 15.1273 124.499 15.609 125.113 15.9428C125.727 16.2756 126.517 16.4421 127.482 16.4421ZM135.166 16.2658V11.6835H136.749C137.101 11.6835 137.353 11.7001 137.508 11.7324C137.719 11.7843 137.926 11.8753 138.131 12.0065C138.334 12.1387 138.565 12.3687 138.823 12.6967C139.081 13.0256 139.409 13.4994 139.807 14.119L141.171 16.2658H142.887L141.094 13.4573C140.738 12.9091 140.361 12.4509 139.962 12.0848C139.774 11.9155 139.5 11.7442 139.14 11.5709C140.128 11.4338 140.86 11.1157 141.333 10.6135C141.807 10.1113 142.043 9.4936 142.043 8.76135C142.043 8.19357 141.901 7.67474 141.614 7.20583C141.329 6.73594 140.946 6.40898 140.468 6.22396C139.989 6.03796 139.292 5.94595 138.373 5.94595H133.803V16.2658H135.167H135.166ZM138.099 10.4999H135.166V7.08738H138.429C139.193 7.08738 139.753 7.24401 140.107 7.55922C140.459 7.87248 140.636 8.27385 140.636 8.76331C140.636 9.09615 140.546 9.40451 140.363 9.6884C140.18 9.97229 139.913 10.1788 139.561 10.3081C139.209 10.4373 138.722 10.5019 138.098 10.5019L138.099 10.4999ZM148.694 16.4421C149.59 16.4421 150.424 16.2296 151.197 15.8057C151.97 15.3809 152.568 14.7554 152.99 13.9291C153.411 13.1029 153.623 12.1671 153.623 11.1196C153.623 10.0878 153.422 9.16369 153.021 8.34922C152.621 7.53573 152.039 6.9004 151.274 6.4452C150.511 5.98999 149.652 5.76288 148.701 5.76288C147.248 5.76288 146.061 6.24745 145.143 7.2166C144.224 8.18574 143.765 9.52688 143.765 11.24C143.765 12.1455 143.962 13.004 144.356 13.8166C144.749 14.6291 145.329 15.2693 146.093 15.7382C146.856 16.2081 147.723 16.443 148.693 16.443L148.694 16.4421ZM148.687 15.2732C147.679 15.2732 146.842 14.9159 146.174 14.2003C145.506 13.4847 145.172 12.5048 145.172 11.2606C145.172 9.707 145.52 8.59787 146.216 7.93416C146.912 7.27044 147.743 6.93858 148.709 6.93858C149.387 6.93858 150 7.11088 150.547 7.45546C151.092 7.80102 151.508 8.28657 151.791 8.91309C152.075 9.5396 152.217 10.2738 152.217 11.1127C152.217 12.4412 151.884 13.4671 151.221 14.1895C150.559 14.912 149.714 15.2732 148.687 15.2732V15.2732ZM156.744 16.2658V12.0701H159.388C160.845 12.0701 161.853 11.7667 162.411 11.1597C162.968 10.5508 163.248 9.80881 163.248 8.93071C163.248 8.41872 163.143 7.94982 162.935 7.52301C162.727 7.09521 162.451 6.76335 162.109 6.52645C161.766 6.28955 161.342 6.12901 160.836 6.04384C160.475 5.97825 159.953 5.94595 159.269 5.94595H155.38V16.2658H156.744V16.2658ZM159.409 10.8524H156.744V7.16373H159.381C160 7.16373 160.424 7.19408 160.653 7.25478C161.01 7.35365 161.296 7.55629 161.514 7.86367C161.732 8.17204 161.842 8.54109 161.842 8.9728C161.842 9.56897 161.656 10.031 161.286 10.3599C160.915 10.6879 160.289 10.8524 159.409 10.8524V10.8524ZM167.86 5.3116V3.86865H166.537V5.31258H167.859L167.86 5.3116ZM170.482 5.3116V3.86865H169.16V5.31258H170.482V5.3116ZM165.301 16.2658L166.433 13.1401H170.741L171.944 16.2658H173.498L169.279 5.94595H167.809L163.852 16.2658H165.3H165.301ZM170.321 12.028H166.827L167.958 9.00119C168.197 8.34824 168.382 7.69138 168.513 7.02962C168.673 7.58761 168.917 8.30224 169.245 9.16957L170.32 12.028H170.321ZM176.184 16.2668V5.94497H174.82V16.2649H176.184V16.2668ZM182.519 16.443C183.254 16.443 183.917 16.307 184.505 16.0378C185.093 15.7676 185.544 15.3897 185.859 14.9042C186.172 14.4186 186.33 13.9007 186.33 13.3516C186.33 12.7975 186.186 12.309 185.9 11.8832C185.614 11.4593 185.171 11.1088 184.572 10.8318C184.16 10.6438 183.399 10.4246 182.29 10.173C181.182 9.92237 180.496 9.67666 180.234 9.4378C179.966 9.19796 179.833 8.89351 179.833 8.52249C179.833 8.09568 180.022 7.72956 180.4 7.42805C180.777 7.12458 181.377 6.97382 182.202 6.97382C182.994 6.97382 183.594 7.14024 183.999 7.47308C184.404 7.80592 184.643 8.2993 184.713 8.95127L186.02 8.85338C185.997 8.24742 185.828 7.70606 185.514 7.22737C185.201 6.74769 184.751 6.38549 184.167 6.13977C183.584 5.89308 182.91 5.76974 182.147 5.76974C181.452 5.76974 180.822 5.88721 180.255 6.12216C179.688 6.3571 179.257 6.69973 178.961 7.15297C178.666 7.60622 178.519 8.09274 178.519 8.61353C178.519 9.08832 178.639 9.51611 178.88 9.89887C179.122 10.2807 179.488 10.6017 179.981 10.8592C180.36 11.0618 181.023 11.2762 181.971 11.5033C182.917 11.7314 183.529 11.8988 183.806 12.0075C184.236 12.171 184.546 12.3746 184.734 12.6164C184.92 12.8582 185.015 13.1401 185.015 13.4641C185.015 13.7833 184.917 14.0779 184.723 14.3481C184.528 14.6173 184.232 14.8298 183.833 14.9844C183.435 15.1401 182.976 15.2174 182.456 15.2174C181.869 15.2174 181.342 15.1156 180.874 14.911C180.404 14.7074 180.059 14.4392 179.837 14.1083C179.614 13.7774 179.473 13.3545 179.411 12.8376L178.125 12.9502C178.144 13.6403 178.332 14.259 178.692 14.8053C179.049 15.3525 179.544 15.7617 180.174 16.0338C180.804 16.306 181.586 16.4421 182.519 16.4421V16.443ZM192.643 16.443C193.716 16.443 194.624 16.1474 195.367 15.5591C196.11 14.9697 196.625 14.1142 196.911 12.9923L195.546 12.6477C195.36 13.516 195.001 14.1709 194.471 14.6114C193.941 15.0529 193.295 15.2732 192.53 15.2732C191.903 15.2732 191.319 15.1117 190.78 14.7877C190.241 14.4646 189.844 13.9751 189.588 13.3193C189.333 12.6653 189.205 11.8998 189.205 11.0217C189.205 10.3413 189.313 9.68057 189.528 9.03937C189.744 8.39915 190.118 7.88913 190.65 7.50832C191.182 7.1285 191.844 6.93858 192.636 6.93858C193.325 6.93858 193.897 7.1099 194.352 7.45252C194.806 7.79515 195.153 8.34139 195.392 9.09223L196.735 8.77604C196.458 7.82354 195.969 7.08347 195.266 6.55778C194.562 6.03307 193.696 5.76974 192.664 5.76974C191.755 5.76974 190.922 5.97727 190.164 6.39234C189.408 6.80839 188.825 7.4163 188.414 8.21609C188.004 9.01588 187.798 9.9537 187.798 11.0286C187.798 12.0143 187.98 12.9365 188.344 13.795C188.707 14.6545 189.237 15.3104 189.933 15.7627C190.629 16.2159 191.532 16.4421 192.643 16.4421V16.443ZM199.998 16.2668V11.4015H205.355V16.2668H206.719V5.94497H205.355V10.1837H199.998V5.94497H198.634V16.2649H199.998V16.2668ZM216.71 16.2668V15.0481H210.381V11.5356H216.084V10.3247H210.381V7.16276H216.47V5.94595H209.017V16.2658H216.71V16.2668ZM226.692 16.443C227.687 16.443 228.489 16.2512 229.101 15.8684C229.712 15.4866 230.136 14.9893 230.37 14.3804C230.605 13.7696 230.722 12.9453 230.722 11.9086V5.94595H229.357V11.9018C229.357 13.1969 229.144 14.0721 228.718 14.5273C228.291 14.9825 227.576 15.2106 226.573 15.2106C225.988 15.2106 225.492 15.095 225.087 14.865C224.681 14.6349 224.395 14.308 224.229 13.8831C224.063 13.4583 223.979 12.7975 223.979 11.9018V5.94595H222.615V11.9086C222.615 13.0021 222.747 13.8645 223.009 14.4959C223.272 15.1273 223.71 15.609 224.324 15.9428C224.938 16.2756 225.727 16.4421 226.692 16.4421V16.443ZM234.286 16.2668V8.15637L239.7 16.2658H241.098V5.94595H239.791V14.0476L234.378 5.94497H232.979V16.2649H234.286V16.2668ZM244.987 16.2668V5.94497H243.622V16.2649H244.987V16.2668ZM251.905 16.443C252.801 16.443 253.635 16.2296 254.408 15.8048C255.181 15.3809 255.779 14.7554 256.201 13.9291C256.622 13.1029 256.833 12.1671 256.833 11.1196C256.833 10.0878 256.633 9.16369 256.232 8.34922C255.831 7.53573 255.25 6.9004 254.485 6.4452C253.722 5.98999 252.863 5.76288 251.912 5.76288C250.459 5.76288 249.272 6.24745 248.354 7.2166C247.435 8.18574 246.976 9.52688 246.976 11.24C246.976 12.1455 247.173 13.004 247.567 13.8166C247.961 14.6291 248.54 15.2693 249.304 15.7382C250.068 16.2081 250.935 16.443 251.904 16.443H251.905ZM251.898 15.2732C250.89 15.2732 250.052 14.9159 249.385 14.2003C248.717 13.4847 248.383 12.5048 248.383 11.2606C248.383 9.707 248.731 8.59787 249.427 7.93416C250.123 7.27044 250.954 6.93858 251.92 6.93858C252.598 6.93858 253.211 7.11088 253.758 7.45546C254.303 7.80102 254.719 8.28657 255.002 8.91309C255.286 9.5396 255.428 10.2738 255.428 11.1127C255.428 12.4412 255.095 13.4671 254.432 14.1895C253.769 14.912 252.925 15.2732 251.898 15.2732V15.2732ZM259.886 16.2658V8.15637L265.299 16.2658H266.697V5.94595H265.39V14.0476L259.977 5.94497H258.578V16.2649H259.885L259.886 16.2658ZM121.098 32.8578V31.6958H115.058V28.3419H120.5V27.1868H115.058V24.1688H120.869V23.0068H113.756V32.8578H121.098ZM125.151 33.0193C126.105 33.0193 126.858 32.616 127.413 31.8093V32.8578H128.494V25.7213H127.285V29.5451C127.285 30.1539 127.219 30.6189 127.087 30.9391C126.955 31.2601 126.73 31.5127 126.413 31.6987C126.095 31.8847 125.755 31.9777 125.392 31.9777C125.03 31.9777 124.725 31.8867 124.48 31.7056C124.233 31.5245 124.072 31.2748 123.996 30.9567C123.947 30.7364 123.922 30.3106 123.922 29.6792V25.7213H122.715V30.1432C122.715 30.6581 122.74 31.034 122.789 31.2719C122.861 31.6263 122.985 31.9248 123.161 32.1696C123.339 32.4133 123.609 32.616 123.973 32.7765C124.338 32.939 124.731 33.0193 125.151 33.0193V33.0193ZM131.58 32.8578V29.1231C131.58 28.6121 131.649 28.1413 131.782 27.7115C131.872 27.4296 132.021 27.2083 132.232 27.0498C132.442 26.8902 132.679 26.8109 132.943 26.8109C133.239 26.8109 133.534 26.899 133.829 27.0733L134.246 25.9504C133.825 25.691 133.411 25.5608 133.004 25.5608C132.721 25.5608 132.463 25.6421 132.229 25.8026C131.994 25.9641 131.738 26.2979 131.46 26.804V25.7223H130.373V32.8587H131.58V32.8578ZM137.856 33.0193C138.478 33.0193 139.052 32.8734 139.577 32.5827C140.103 32.291 140.503 31.8827 140.779 31.3561C141.053 30.8294 141.191 30.107 141.191 29.1887C141.191 28.0551 140.88 27.1672 140.258 26.5241C139.636 25.8819 138.836 25.5598 137.856 25.5598C136.974 25.5598 136.227 25.8241 135.614 26.3528C134.881 26.9891 134.513 27.968 134.513 29.2896C134.513 30.4946 134.821 31.4177 135.436 32.058C136.052 32.6992 136.858 33.0193 137.856 33.0193V33.0193ZM137.856 32.0247C137.252 32.0247 136.751 31.7976 136.352 31.3424C135.954 30.8882 135.756 30.2039 135.756 29.2896C135.756 28.3762 135.954 27.6929 136.352 27.2397C136.75 26.7874 137.252 26.5613 137.856 26.5613C138.45 26.5613 138.949 26.7884 139.349 27.2436C139.75 27.6978 139.95 28.3664 139.95 29.2494C139.95 30.1853 139.751 30.8823 139.353 31.3394C138.954 31.7966 138.455 32.0247 137.856 32.0247V32.0247ZM143.816 35.5929V32.1187C144.021 32.3791 144.284 32.5934 144.604 32.7648C144.923 32.9341 145.285 33.0193 145.688 33.0193C146.238 33.0193 146.763 32.8627 147.262 32.5523C147.761 32.241 148.141 31.7927 148.403 31.2083C148.664 30.6238 148.795 29.966 148.795 29.2357C148.795 28.5554 148.677 27.9288 148.439 27.3581C148.202 26.7864 147.851 26.3439 147.386 26.0307C146.921 25.7174 146.383 25.5608 145.775 25.5608C145.31 25.5608 144.915 25.6509 144.587 25.832C144.261 26.014 143.967 26.2862 143.707 26.6484V25.7213H142.607V35.5929H143.816V35.5929ZM145.607 32.0247C145.079 32.0247 144.629 31.8054 144.258 31.3659C143.886 30.9273 143.7 30.2479 143.7 29.3297C143.7 28.4115 143.899 27.7115 144.295 27.2299C144.691 26.7482 145.146 26.5074 145.661 26.5074C146.18 26.5074 146.627 26.7336 147 27.1868C147.373 27.6391 147.56 28.3194 147.56 29.2289C147.56 30.1833 147.369 30.8882 146.986 31.3434C146.604 31.7976 146.145 32.0247 145.608 32.0247H145.607ZM152.506 24.3234V22.9461H151.245V24.3234H152.506ZM155.009 24.3234V22.9461H153.748V24.3234H155.009ZM152.278 33.0193C152.752 33.0193 153.197 32.941 153.61 32.7843C154.024 32.6277 154.455 32.3585 154.902 31.9777C154.938 32.3135 155.019 32.6072 155.144 32.8587H156.405C156.253 32.5846 156.151 32.2988 156.1 32.0012C156.049 31.7036 156.023 30.9929 156.023 29.8671V28.2548C156.023 27.7164 156.003 27.3454 155.962 27.1388C155.891 26.808 155.767 26.5339 155.587 26.3165C155.408 26.0992 155.128 25.9181 154.748 25.7752C154.368 25.6323 153.873 25.5598 153.265 25.5598C152.652 25.5598 152.113 25.644 151.648 25.8124C151.182 25.9798 150.827 26.2196 150.58 26.5309C150.334 26.8422 150.158 27.2514 150.05 27.7575L151.231 27.919C151.361 27.4129 151.561 27.0595 151.832 26.8608C152.102 26.6611 152.522 26.5613 153.09 26.5613C153.699 26.5613 154.157 26.6983 154.466 26.9714C154.694 27.1731 154.808 27.5196 154.808 28.013L154.802 28.3282C154.341 28.4898 153.623 28.6288 152.647 28.7453C152.168 28.804 151.811 28.8637 151.573 28.9264C151.251 29.0164 150.961 29.1486 150.704 29.3228C150.447 29.4981 150.239 29.7301 150.081 30.0179C149.921 30.3076 149.842 30.6268 149.842 30.9772C149.842 31.5724 150.052 32.0619 150.473 32.4447C150.893 32.8274 151.495 33.0193 152.278 33.0193V33.0193ZM152.567 32.0717C152.097 32.0717 151.741 31.964 151.496 31.7486C151.252 31.5333 151.131 31.265 151.131 30.943C151.131 30.7325 151.186 30.5416 151.299 30.3683C151.41 30.196 151.569 30.0649 151.775 29.9748C151.98 29.8857 152.332 29.8045 152.829 29.733C153.706 29.6077 154.364 29.455 154.802 29.2759V29.7193C154.802 30.2528 154.737 30.6561 154.606 30.9293C154.437 31.2836 154.171 31.5617 153.808 31.7663C153.447 31.9699 153.032 32.0717 152.567 32.0717V32.0717ZM159.11 24.3969V23.0068H157.902V24.3969H159.11ZM159.11 32.8578V25.7213H157.902V32.8578H159.11ZM163.513 33.0193C164.072 33.0193 164.573 32.9214 165.016 32.7266C165.459 32.5318 165.798 32.2567 166.033 31.9004C166.268 31.544 166.385 31.1642 166.385 30.7609C166.385 30.3497 166.289 30.0042 166.096 29.7262C165.904 29.4491 165.639 29.2367 165.302 29.0918C164.963 28.945 164.367 28.759 163.513 28.5299C162.922 28.3694 162.566 28.2656 162.446 28.2215C162.236 28.1364 162.081 28.0287 161.983 27.8985C161.885 27.7732 161.836 27.6322 161.836 27.4756C161.836 27.2289 161.953 27.0135 162.191 26.8295C162.427 26.6464 162.823 26.5554 163.379 26.5554C163.848 26.5554 164.212 26.6582 164.469 26.8638C164.727 27.0693 164.882 27.3562 164.936 27.7242L166.117 27.5627C166.041 27.1016 165.902 26.7326 165.701 26.4565C165.499 26.1824 165.187 25.9631 164.764 25.8016C164.342 25.6411 163.851 25.5598 163.292 25.5598C162.92 25.5598 162.572 25.6088 162.247 25.7047C161.923 25.8006 161.667 25.9181 161.479 26.0571C161.229 26.2363 161.03 26.4614 160.886 26.7326C160.74 27.0037 160.668 27.2984 160.668 27.6166C160.668 27.966 160.756 28.2852 160.932 28.574C161.109 28.8627 161.369 29.0889 161.711 29.2524C162.053 29.4158 162.667 29.6097 163.553 29.8338C164.211 30.0003 164.622 30.1363 164.787 30.244C165.025 30.4006 165.143 30.616 165.143 30.8891C165.143 31.1936 165.009 31.4589 164.74 31.685C164.473 31.9111 164.061 32.0247 163.506 32.0247C162.955 32.0247 162.528 31.8974 162.221 31.6419C161.914 31.3864 161.727 31.0193 161.661 30.5397L160.466 30.7276C160.6 31.4853 160.91 32.056 161.395 32.4407C161.881 32.8264 162.587 33.0183 163.513 33.0183V33.0193ZM170.693 33.0193C171.473 33.0193 172.129 32.7873 172.663 32.3242C173.198 31.8602 173.531 31.218 173.661 30.3987L172.472 30.244C172.387 30.849 172.186 31.2964 171.869 31.5881C171.551 31.8788 171.155 32.0247 170.681 32.0247C170.09 32.0247 169.611 31.8074 169.244 31.3727C168.877 30.9381 168.694 30.2421 168.694 29.2827C168.694 28.338 168.884 27.6469 169.264 27.2103C169.645 26.7727 170.139 26.5544 170.747 26.5544C171.15 26.5544 171.493 26.6758 171.778 26.9166C172.061 27.1594 172.26 27.5196 172.371 27.9993L173.546 27.8182C173.407 27.0967 173.092 26.5397 172.6 26.1482C172.107 25.7566 171.475 25.5608 170.7 25.5608C170.087 25.5608 169.52 25.7047 168.999 25.9935C168.478 26.2823 168.09 26.7159 167.836 27.2935C167.58 27.8711 167.452 28.5465 167.452 29.317C167.452 30.5083 167.749 31.4236 168.342 32.0619C168.935 32.7002 169.719 33.0193 170.693 33.0193V33.0193ZM175.901 32.8578V28.9538C175.901 28.3938 175.969 27.9553 176.103 27.6361C176.238 27.319 176.462 27.0664 176.777 26.8804C177.093 26.6944 177.429 26.6014 177.787 26.6014C178.266 26.6014 178.637 26.7394 178.898 27.0145C179.16 27.2906 179.291 27.7311 179.291 28.3361V32.8587H180.499V28.3361C180.499 27.6361 180.415 27.1026 180.247 26.7365C180.079 26.3684 179.801 26.0806 179.411 25.8721C179.022 25.6646 178.564 25.5598 178.036 25.5598C177.177 25.5598 176.465 25.8868 175.901 26.5417V23.0068H174.694V32.8578H175.901V32.8578ZM185.331 33.0193C186.159 33.0193 186.838 32.8176 187.371 32.4143C187.903 32.011 188.268 31.4452 188.465 30.7139L187.217 30.5602C187.033 31.0702 186.785 31.4422 186.472 31.6752C186.159 31.9082 185.781 32.0247 185.338 32.0247C184.742 32.0247 184.246 31.8162 183.848 31.4001C183.45 30.9831 183.228 30.382 183.183 29.5989H188.498C188.503 29.455 188.505 29.3483 188.505 29.2759C188.505 28.0982 188.203 27.1839 187.599 26.5348C186.995 25.8848 186.217 25.5598 185.263 25.5598C184.28 25.5598 183.478 25.8917 182.861 26.5544C182.243 27.2181 181.935 28.1501 181.935 29.3502C181.935 30.5103 182.24 31.4119 182.851 32.055C183.462 32.6982 184.289 33.0193 185.331 33.0193V33.0193ZM187.23 28.6043H183.25C183.29 27.9817 183.5 27.4844 183.878 27.1124C184.256 26.7404 184.723 26.5544 185.277 26.5544C185.89 26.5544 186.389 26.7874 186.773 27.2534C187.024 27.5539 187.177 28.0042 187.23 28.6043ZM191.176 32.8578V29.1231C191.176 28.6121 191.244 28.1413 191.378 27.7115C191.468 27.4296 191.617 27.2083 191.827 27.0498C192.038 26.8902 192.275 26.8109 192.539 26.8109C192.834 26.8109 193.13 26.899 193.425 27.0733L193.84 25.9504C193.42 25.691 193.006 25.5608 192.599 25.5608C192.317 25.5608 192.059 25.6421 191.824 25.8026C191.59 25.9641 191.333 26.2979 191.056 26.804V25.7223H189.969V32.8587H191.176V32.8578ZM202.283 33.0261C202.986 33.0261 203.618 32.8969 204.18 32.6395C204.741 32.382 205.171 32.0217 205.47 31.5577C205.771 31.0937 205.92 30.6003 205.92 30.0756C205.92 29.547 205.784 29.0801 205.512 28.6748C205.238 28.2695 204.815 27.9347 204.244 27.6704C203.85 27.4913 203.123 27.2818 202.065 27.0419C201.007 26.8021 200.352 26.5681 200.102 26.34C199.848 26.111 199.72 25.8202 199.72 25.4658C199.72 25.0586 199.9 24.7101 200.26 24.4213C200.62 24.1325 201.194 23.9877 201.981 23.9877C202.738 23.9877 203.309 24.1462 203.696 24.4644C204.083 24.7826 204.31 25.2534 204.377 25.876L205.626 25.782C205.603 25.2045 205.442 24.6856 205.142 24.2295C204.843 23.7723 204.415 23.4267 203.857 23.1918C203.3 22.9568 202.657 22.8394 201.927 22.8394C201.266 22.8394 200.663 22.951 200.123 23.1742C199.581 23.3993 199.17 23.7263 198.888 24.159C198.605 24.5917 198.465 25.0557 198.465 25.553C198.465 26.0062 198.58 26.4144 198.811 26.7796C199.04 27.1447 199.39 27.4511 199.861 27.6968C200.222 27.8897 200.856 28.0943 201.76 28.3116C202.664 28.5289 203.247 28.6895 203.511 28.7923C203.923 28.9489 204.218 29.1427 204.397 29.3737C204.576 29.6048 204.666 29.874 204.666 30.1833C204.666 30.4878 204.573 30.7687 204.387 31.0272C204.201 31.2846 203.918 31.4873 203.539 31.6341C203.157 31.7829 202.719 31.8563 202.223 31.8563C201.663 31.8563 201.16 31.7584 200.713 31.5646C200.265 31.3688 199.936 31.1143 199.723 30.7981C199.511 30.4829 199.375 30.0786 199.317 29.5852L198.089 29.6929C198.107 30.3517 198.287 30.942 198.629 31.4638C198.971 31.9855 199.443 32.3761 200.045 32.6365C200.647 32.8959 201.393 33.0261 202.284 33.0261H202.283ZM210.437 33.0193C211.06 33.0193 211.634 32.8734 212.159 32.5827C212.685 32.291 213.085 31.8827 213.361 31.3561C213.635 30.8294 213.773 30.107 213.773 29.1887C213.773 28.0551 213.462 27.1672 212.84 26.5241C212.218 25.8819 211.418 25.5598 210.438 25.5598C209.556 25.5598 208.809 25.8241 208.196 26.3528C207.463 26.9891 207.095 27.968 207.095 29.2896C207.095 30.4946 207.403 31.4177 208.018 32.058C208.634 32.6992 209.44 33.0193 210.438 33.0193H210.437ZM210.437 32.0247C209.834 32.0247 209.332 31.7976 208.934 31.3424C208.536 30.8882 208.337 30.2039 208.337 29.2896C208.337 28.3762 208.536 27.6929 208.933 27.2397C209.332 26.7874 209.833 26.5613 210.438 26.5613C211.032 26.5613 211.53 26.7884 211.931 27.2436C212.332 27.6978 212.531 28.3664 212.531 29.2494C212.531 30.1853 212.333 30.8823 211.935 31.3394C211.536 31.7966 211.037 32.0247 210.438 32.0247H210.437ZM220.86 32.8578V31.8162H217.565C217.091 31.8162 216.582 31.8358 216.042 31.8769L216.786 31.0506L220.646 26.5211V25.7213H214.82V26.7022H217.726C218.119 26.7022 218.574 26.6895 219.088 26.6631L214.552 31.8769V32.8578H220.86V32.8578ZM223.276 24.3978V23.0068H222.068V24.3969H223.276V24.3978ZM223.276 32.8578V25.7213H222.068V32.8578H223.276ZM227.142 33.0193C227.616 33.0193 228.06 32.941 228.474 32.7843C228.888 32.6277 229.318 32.3585 229.766 31.9777C229.801 32.3135 229.882 32.6072 230.008 32.8587H231.269C231.117 32.5846 231.015 32.2988 230.964 32.0012C230.912 31.7036 230.887 30.9929 230.887 29.8671V28.2548C230.887 27.7164 230.867 27.3454 230.826 27.1388C230.755 26.808 230.629 26.5339 230.45 26.3165C230.272 26.0992 229.991 25.9181 229.612 25.7752C229.23 25.6323 228.737 25.5598 228.129 25.5598C227.516 25.5598 226.976 25.644 226.511 25.8124C226.045 25.9798 225.689 26.2196 225.444 26.5309C225.198 26.8422 225.021 27.2514 224.914 27.7575L226.095 27.919C226.224 27.4129 226.425 27.0595 226.695 26.8608C226.966 26.6611 227.386 26.5613 227.954 26.5613C228.563 26.5613 229.021 26.6983 229.329 26.9714C229.558 27.1731 229.671 27.5196 229.671 28.013L229.665 28.3282C229.204 28.4898 228.486 28.6288 227.511 28.7453C227.032 28.804 226.674 28.8637 226.437 28.9264C226.115 29.0164 225.825 29.1486 225.567 29.3228C225.311 29.4981 225.103 29.7301 224.943 30.0179C224.785 30.3076 224.706 30.6268 224.706 30.9772C224.706 31.5724 224.916 32.0619 225.336 32.4447C225.757 32.8274 226.359 33.0193 227.142 33.0193V33.0193ZM227.431 32.0717C226.961 32.0717 226.603 31.964 226.36 31.7486C226.116 31.5333 225.994 31.265 225.994 30.943C225.994 30.7325 226.05 30.5416 226.162 30.3683C226.274 30.196 226.432 30.0649 226.639 29.9748C226.844 29.8857 227.196 29.8045 227.692 29.733C228.569 29.6077 229.226 29.455 229.665 29.2759V29.7193C229.665 30.2528 229.6 30.6561 229.47 30.9293C229.301 31.2836 229.034 31.5617 228.672 31.7663C228.309 31.9699 227.896 32.0717 227.431 32.0717V32.0717ZM233.94 32.8578V23.0068H232.732V32.8578H233.94V32.8578ZM237.303 32.8578V26.6621H238.691V25.7213H237.303V25.0625C237.303 24.6328 237.378 24.3391 237.531 24.1825C237.683 24.0258 237.942 23.9475 238.309 23.9475C238.534 23.9475 238.77 23.97 239.021 24.0141L239.201 22.9598C238.791 22.8785 238.414 22.8384 238.074 22.8384C237.546 22.8384 237.136 22.9363 236.842 23.1311C236.549 23.3259 236.345 23.5804 236.228 23.8937C236.143 24.1267 236.101 24.483 236.101 24.9617V25.7213H235.034V26.6621H236.101V32.8587H237.303V32.8578ZM242.524 33.0193C243.145 33.0193 243.719 32.8734 244.245 32.5827C244.771 32.291 245.171 31.8827 245.447 31.3561C245.721 30.8294 245.859 30.107 245.859 29.1887C245.859 28.0551 245.548 27.1672 244.927 26.5241C244.305 25.8819 243.504 25.5598 242.524 25.5598C241.643 25.5598 240.896 25.8241 240.283 26.3528C239.549 26.9891 239.182 27.968 239.182 29.2896C239.182 30.4946 239.489 31.4177 240.105 32.058C240.72 32.6992 241.526 33.0193 242.524 33.0193V33.0193ZM242.524 32.0247C241.92 32.0247 241.419 31.7976 241.021 31.3424C240.622 30.8882 240.424 30.2039 240.424 29.2896C240.424 28.3762 240.622 27.6929 241.02 27.2397C241.419 26.7874 241.919 26.5613 242.524 26.5613C243.119 26.5613 243.617 26.7884 244.017 27.2436C244.418 27.6978 244.618 28.3664 244.618 29.2494C244.618 30.1853 244.418 30.8823 244.021 31.3394C243.622 31.7966 243.124 32.0247 242.524 32.0247V32.0247ZM248.483 32.8578V28.9606C248.483 28.0463 248.67 27.4257 249.043 27.0987C249.417 26.7717 249.862 26.6092 250.376 26.6092C250.699 26.6092 250.979 26.6817 251.218 26.8266C251.457 26.9724 251.624 27.1672 251.718 27.411C251.812 27.6557 251.859 28.0238 251.859 28.5172V32.8578H253.068V28.4702C253.068 27.9102 253.045 27.5177 252.999 27.2935C252.929 26.9489 252.804 26.6513 252.625 26.3997C252.445 26.1491 252.175 25.9465 251.815 25.7928C251.455 25.6372 251.06 25.5598 250.631 25.5598C249.642 25.5598 248.886 25.9514 248.363 26.7365V25.7213H247.275V32.8578H248.483V32.8578ZM257.55 33.0193C258.427 33.0193 259.092 32.6649 259.543 31.9571V32.8578H260.664V23.0068H259.463V26.5407C259.252 26.25 258.979 26.014 258.644 25.832C258.309 25.6509 257.926 25.5598 257.496 25.5598C256.91 25.5598 256.38 25.7145 255.906 26.0238C255.431 26.3332 255.076 26.7776 254.839 27.3581C254.601 27.9377 254.483 28.5837 254.483 29.2964C254.483 30.0267 254.614 30.6728 254.876 31.2347C255.137 31.7976 255.507 32.2352 255.983 32.5484C256.46 32.8617 256.982 33.0183 257.55 33.0183V33.0193ZM257.664 32.0247C257.14 32.0247 256.687 31.7986 256.302 31.3463C255.917 30.893 255.725 30.2107 255.725 29.2964C255.725 28.3508 255.905 27.6586 256.265 27.2201C256.625 26.7805 257.074 26.5613 257.611 26.5613C258.161 26.5613 258.624 26.7903 258.999 27.2465C259.375 27.7037 259.564 28.4212 259.564 29.3972C259.564 30.2842 259.378 30.9439 259.01 31.3766C258.641 31.8083 258.192 32.0247 257.664 32.0247V32.0247ZM265.127 33.0193C265.686 33.0193 266.188 32.9214 266.63 32.7266C267.073 32.5318 267.413 32.2567 267.647 31.9004C267.882 31.544 267.999 31.1642 267.999 30.7609C267.999 30.3497 267.903 30.0042 267.711 29.7262C267.518 29.4491 267.253 29.2367 266.916 29.0918C266.578 28.945 265.981 28.759 265.127 28.5299C264.536 28.3694 264.181 28.2656 264.06 28.2215C263.85 28.1364 263.696 28.0287 263.597 27.8985C263.499 27.7732 263.45 27.6322 263.45 27.4756C263.45 27.2289 263.568 27.0135 263.805 26.8295C264.043 26.6464 264.439 26.5554 264.993 26.5554C265.462 26.5554 265.826 26.6582 266.083 26.8638C266.341 27.0693 266.497 27.3562 266.55 27.7242L267.731 27.5627C267.655 27.1016 267.516 26.7326 267.315 26.4565C267.113 26.1824 266.802 25.9631 266.379 25.8016C265.956 25.6411 265.465 25.5598 264.906 25.5598C264.534 25.5598 264.186 25.6088 263.862 25.7047C263.538 25.8006 263.282 25.9181 263.093 26.0571C262.843 26.2363 262.646 26.4614 262.5 26.7326C262.354 27.0037 262.282 27.2984 262.282 27.6166C262.282 27.966 262.37 28.2852 262.546 28.574C262.724 28.8627 262.983 29.0889 263.325 29.2524C263.667 29.4158 264.281 29.6097 265.167 29.8338C265.825 30.0003 266.237 30.1363 266.403 30.244C266.639 30.4006 266.758 30.616 266.758 30.8891C266.758 31.1936 266.624 31.4589 266.356 31.685C266.087 31.9111 265.675 32.0247 265.12 32.0247C264.571 32.0247 264.142 31.8974 263.835 31.6419C263.528 31.3864 263.342 31.0193 263.275 30.5397L262.08 30.7276C262.214 31.4853 262.524 32.056 263.009 32.4407C263.495 32.8264 264.201 33.0183 265.127 33.0183V33.0193Z" fill="#1A1919"/>
</svg>
