<svg width="327" height="234" viewBox="0 0 327 234" fill="none" xmlns="http://www.w3.org/2000/svg">
<path fill-rule="evenodd" clip-rule="evenodd" d="M0 145.426H219.139V0H0V145.426Z" fill="#174489"/>
<path fill-rule="evenodd" clip-rule="evenodd" d="M104.901 31.6849L109.525 28.3259L114.149 31.6849L112.39 26.2524L117.086 22.8935H111.297L109.525 17.395L107.753 22.8997L101.968 22.8935L106.661 26.2524L104.901 31.6849ZM80.9724 39.5045L85.5965 36.1435L90.2164 39.5045L88.4588 34.072L93.1533 29.2936L87.3644 30.7131L85.5923 25.2084L83.8202 30.7172L78.0354 30.7131L82.7279 34.072L80.9724 39.5045ZM68.0867 42.6756L66.3146 48.1865L60.5278 48.1803L65.2223 51.5392L63.4626 56.9716L68.0867 53.6127L72.7108 56.9716L70.9511 51.5392L75.6436 48.1803H69.8588L68.0867 42.6756ZM61.6636 77.4037L66.2835 80.7626L64.528 75.3301L69.2205 71.9712H63.4357L61.6636 66.4666L59.8915 71.9815L54.1025 71.9712L58.7992 75.3301L57.0395 80.7626L61.6636 77.4037ZM69.8588 95.8323L68.0867 90.3297L66.3146 95.8406L60.5278 95.8323L65.2223 99.1933L63.4626 104.626L68.0867 101.261L72.7108 104.626L70.9511 99.1933L75.6436 95.8323H69.8588ZM87.3997 113.295L85.6296 107.797L83.8596 113.302L78.0707 113.295L82.7652 116.656L81.0076 122.087L85.6317 118.728L90.2516 122.087L88.4961 116.656L93.1886 111.88L87.3997 113.295ZM111.299 118.206L109.527 112.701L107.759 118.212L101.97 118.206L106.665 121.565L104.907 126.997L109.531 123.638L114.151 126.997L112.394 121.565L117.088 118.206H111.299ZM135.199 111.88L133.431 106.379L131.657 111.884L125.872 111.88L130.563 115.237L128.807 120.669L133.431 117.31L138.055 120.669L136.291 115.237L140.988 111.88H135.199ZM152.748 94.4149L150.972 88.9102L149.198 94.4211L143.415 94.4149L148.114 97.7759L146.35 103.206L150.972 99.8412L155.596 103.206L153.836 97.7759L158.531 94.4149H152.748ZM166.312 70.4857H159.099L157.325 64.9831L155.557 70.494L149.768 70.4857L154.46 73.8446L152.707 79.2771L157.325 75.912L161.949 79.2771L160.191 73.8446L166.312 70.4857ZM146.35 55.482L150.972 52.121L155.596 55.482L153.836 50.0475L158.531 46.6968H152.748L150.972 41.1922L149.198 46.703L143.415 46.6968L148.114 50.0475L146.35 55.482ZM133.497 23.7931L131.73 29.3039L125.939 29.2936L130.629 32.6587L128.873 38.0891L133.504 34.724L138.122 38.0891L136.364 32.6587L141.063 29.2936H135.268L133.497 23.7931Z" fill="#FFF101"/>
<path d="M16.4154 193.266V190.7H3.0012V183.297H15.0889V180.745H3.0012V174.08H15.9097V171.516H0.10985V193.266H16.4154ZM29.1 193.638C31.2079 193.638 32.9095 193.235 34.2049 192.429C35.5024 191.624 36.3999 190.576 36.8952 189.293C37.3927 188.005 37.6414 186.268 37.6414 184.083V171.516H34.7501V184.068C34.7501 186.798 34.2982 188.643 33.3925 189.602C32.4888 190.561 30.9737 191.042 28.8471 191.042C27.6036 191.042 26.5548 190.799 25.6967 190.314C24.8345 189.829 24.2293 189.14 23.8769 188.244C23.5246 187.349 23.3463 185.956 23.3463 184.068V171.516H20.455V184.083C20.455 186.387 20.7348 188.205 21.2903 189.536C21.8478 190.867 22.7764 191.882 24.078 192.585C25.3796 193.287 27.0543 193.638 29.1 193.638ZM45.391 193.266V183.608H48.7467C49.4928 183.608 50.0276 183.643 50.355 183.712C50.8027 183.821 51.2421 184.013 51.6753 184.289C52.1064 184.568 52.5956 185.053 53.1428 185.744C53.6899 186.437 54.3863 187.436 55.2299 188.742L58.1213 193.266H61.7588L57.9575 187.347C57.2031 186.191 56.403 185.226 55.5574 184.454C55.1594 184.097 54.5791 183.736 53.8143 183.371C55.9097 183.082 57.4622 182.412 58.4632 181.353C59.4685 180.295 59.9701 178.993 59.9701 177.45C59.9701 176.253 59.6675 175.159 59.0602 174.171C58.455 173.181 57.6445 172.492 56.631 172.102C55.6154 171.71 54.1376 171.516 52.1893 171.516H42.4997V193.266H45.3931H45.391ZM51.609 181.114H45.391V173.922H52.3075C53.9283 173.922 55.1138 174.252 55.8641 174.916C56.6124 175.576 56.9875 176.422 56.9875 177.454C56.9875 178.155 56.7948 178.805 56.4072 179.404C56.0196 180.002 55.4538 180.437 54.7076 180.71C53.9615 180.982 52.9293 181.118 51.6069 181.118L51.609 181.114ZM74.0703 193.638C75.9689 193.638 77.7368 193.19 79.3763 192.297C81.0158 191.401 82.2821 190.083 83.1775 188.341C84.0708 186.6 84.5185 184.628 84.5185 182.42C84.5185 180.245 84.0936 178.298 83.2439 176.581C82.3941 174.866 81.1608 173.527 79.54 172.568C77.9213 171.609 76.1015 171.13 74.0848 171.13C71.0049 171.13 68.4887 172.151 66.5424 174.194C64.5941 176.236 63.62 179.063 63.62 182.674C63.62 184.582 64.0387 186.392 64.874 188.104C65.7072 189.817 66.9362 191.166 68.555 192.154C70.1737 193.145 72.0122 193.64 74.0682 193.64L74.0703 193.638ZM74.0558 191.174C71.9189 191.174 70.1426 190.421 68.727 188.913C67.3114 187.405 66.6025 185.339 66.6025 182.717C66.6025 179.443 67.3404 177.105 68.8161 175.706C70.2919 174.307 72.0536 173.608 74.1014 173.608C75.5398 173.608 76.8394 173.971 77.998 174.697C79.1545 175.426 80.0354 176.449 80.6365 177.769C81.2375 179.09 81.5381 180.637 81.5381 182.405C81.5381 185.205 80.8334 187.368 79.4281 188.89C78.0228 190.413 76.2321 191.174 74.0558 191.174ZM91.1365 193.266V184.423H96.7409C99.8313 184.423 101.968 183.784 103.15 182.505C104.331 181.221 104.924 179.657 104.924 177.807C104.924 176.728 104.702 175.739 104.261 174.84C103.819 173.938 103.235 173.239 102.509 172.739C101.784 172.24 100.884 171.902 99.8106 171.722C99.0457 171.584 97.939 171.516 96.4881 171.516H88.2452V193.266H91.1365ZM96.7866 181.857H91.1365V174.082H96.7264C98.0384 174.082 98.938 174.146 99.423 174.274C100.179 174.483 100.787 174.91 101.249 175.558C101.711 176.208 101.943 176.985 101.943 177.895C101.943 179.152 101.55 180.126 100.766 180.819C99.9784 181.51 98.6519 181.857 96.7866 181.857ZM114.703 170.179V167.138H111.898V170.181H114.7L114.703 170.179ZM120.261 170.179V167.138H117.459V170.181H120.261V170.179ZM109.276 193.266L111.676 186.678H120.811L123.36 193.266H126.656L117.71 171.516H114.595L106.205 193.266H109.274H109.276ZM119.919 184.335H112.512L114.91 177.955C115.418 176.579 115.809 175.195 116.087 173.8C116.425 174.976 116.943 176.482 117.637 178.31L119.917 184.335H119.919ZM132.349 193.268V171.514H129.458V193.264H132.349V193.268ZM145.78 193.64C147.338 193.64 148.744 193.353 149.989 192.786C151.237 192.216 152.193 191.42 152.86 190.396C153.523 189.373 153.859 188.282 153.859 187.124C153.859 185.956 153.554 184.927 152.947 184.029C152.342 183.136 151.403 182.397 150.132 181.813C149.258 181.417 147.645 180.955 145.295 180.425C142.944 179.897 141.492 179.379 140.936 178.875C140.368 178.37 140.086 177.728 140.086 176.946C140.086 176.047 140.486 175.275 141.286 174.64C142.086 174 143.359 173.682 145.108 173.682C146.787 173.682 148.058 174.033 148.918 174.734C149.776 175.436 150.282 176.476 150.431 177.85L153.202 177.644C153.152 176.366 152.796 175.226 152.128 174.217C151.465 173.206 150.512 172.442 149.274 171.924C148.037 171.404 146.609 171.144 144.99 171.144C143.519 171.144 142.182 171.392 140.98 171.887C139.777 172.382 138.863 173.105 138.237 174.06C137.612 175.015 137.299 176.04 137.299 177.138C137.299 178.139 137.554 179.04 138.065 179.847C138.577 180.652 139.355 181.328 140.399 181.871C141.203 182.298 142.609 182.75 144.617 183.229C146.623 183.709 147.921 184.062 148.507 184.291C149.419 184.636 150.076 185.065 150.476 185.575C150.87 186.084 151.071 186.678 151.071 187.361C151.071 188.034 150.864 188.655 150.452 189.224C150.039 189.792 149.411 190.24 148.565 190.566C147.722 190.894 146.748 191.057 145.645 191.057C144.402 191.057 143.284 190.842 142.292 190.411C141.297 189.982 140.565 189.416 140.095 188.719C139.622 188.022 139.321 187.13 139.191 186.041L136.463 186.278C136.505 187.733 136.903 189.037 137.665 190.188C138.424 191.341 139.473 192.204 140.808 192.777C142.144 193.351 143.803 193.638 145.78 193.638V193.64ZM167.242 193.64C169.518 193.64 171.443 193.017 173.019 191.777C174.594 190.535 175.684 188.731 176.291 186.367L173.398 185.641C173.002 187.471 172.241 188.851 171.118 189.779C169.995 190.71 168.625 191.174 167.004 191.174C165.673 191.174 164.436 190.834 163.294 190.151C162.15 189.47 161.308 188.438 160.765 187.056C160.226 185.678 159.955 184.064 159.955 182.214C159.955 180.78 160.183 179.387 160.639 178.036C161.097 176.686 161.891 175.611 163.018 174.809C164.146 174.008 165.549 173.608 167.228 173.608C168.689 173.608 169.901 173.969 170.865 174.691C171.829 175.413 172.565 176.565 173.07 178.147L175.918 177.481C175.332 175.473 174.293 173.913 172.803 172.805C171.311 171.699 169.474 171.144 167.288 171.144C165.36 171.144 163.594 171.582 161.988 172.457C160.384 173.334 159.148 174.615 158.278 176.3C157.407 177.986 156.972 179.963 156.972 182.228C156.972 184.306 157.358 186.249 158.129 188.059C158.898 189.87 160.021 191.253 161.497 192.206C162.973 193.161 164.888 193.638 167.242 193.638V193.64ZM182.835 193.268V183.014H194.193V193.268H197.084V171.514H194.193V180.447H182.835V171.514H179.943V193.264H182.835V193.268ZM218.265 193.268V190.7H204.848V183.297H216.938V180.745H204.848V174.08H217.757V171.516H201.957V193.266H218.265V193.268ZM239.428 193.64C241.536 193.64 243.238 193.235 244.535 192.429C245.831 191.624 246.728 190.576 247.226 189.293C247.723 188.005 247.972 186.268 247.972 184.083V171.516H245.078V184.068C245.078 186.798 244.627 188.643 243.723 189.602C242.817 190.561 241.302 191.042 239.176 191.042C237.934 191.042 236.883 190.799 236.025 190.314C235.165 189.829 234.558 189.14 234.205 188.244C233.853 187.349 233.677 185.956 233.677 184.068V171.516H230.783V184.083C230.783 186.387 231.063 188.205 231.619 189.536C232.176 190.867 233.105 191.882 234.406 192.585C235.708 193.287 237.383 193.638 239.428 193.638V193.64ZM255.527 193.268V176.175L267.005 193.266H269.969V171.516H267.198V188.591L255.722 171.514H252.756V193.264H255.527V193.268ZM278.214 193.268V171.514H275.321V193.264H278.214V193.268ZM292.88 193.64C294.779 193.64 296.547 193.19 298.186 192.294C299.825 191.401 301.092 190.083 301.987 188.341C302.881 186.6 303.328 184.628 303.328 182.42C303.328 180.245 302.903 178.298 302.054 176.581C301.204 174.866 299.971 173.527 298.35 172.568C296.731 171.609 294.911 171.13 292.895 171.13C289.815 171.13 287.298 172.151 285.352 174.194C283.404 176.236 282.43 179.063 282.43 182.674C282.43 184.582 282.848 186.392 283.684 188.104C284.519 189.817 285.746 191.166 287.365 192.154C288.985 193.145 290.824 193.64 292.878 193.64H292.88ZM292.866 191.174C290.729 191.174 288.952 190.421 287.537 188.913C286.121 187.405 285.412 185.339 285.412 182.717C285.412 179.443 286.15 177.105 287.626 175.706C289.102 174.307 290.863 173.608 292.911 173.608C294.35 173.608 295.649 173.971 296.808 174.697C297.964 175.426 298.845 176.449 299.446 177.769C300.047 179.09 300.348 180.637 300.348 182.405C300.348 185.205 299.643 187.368 298.238 188.89C296.833 190.413 295.042 191.174 292.866 191.174ZM309.799 193.266V176.175L321.275 193.266H324.239V171.516H321.468V188.591L309.992 171.514H307.026V193.264H309.797L309.799 193.266ZM15.5656 228.236V225.787H2.76077V218.718H14.2971V216.284H2.76077V209.923H15.0806V207.474H0V228.236H15.5656ZM24.1588 228.576C26.1796 228.576 27.7777 227.726 28.9529 226.026V228.236H31.2452V213.195H28.6813V221.254C28.6813 222.537 28.5425 223.517 28.2627 224.192C27.9829 224.869 27.5061 225.401 26.8325 225.793C26.1589 226.185 25.4376 226.381 24.6687 226.381C23.9018 226.381 23.2551 226.189 22.7349 225.807C22.2126 225.426 21.8706 224.899 21.7089 224.229C21.6053 223.765 21.5535 222.867 21.5535 221.536V213.195H18.9938V222.514C18.9938 223.6 19.0456 224.392 19.1513 224.893C19.3026 225.64 19.5658 226.269 19.9389 226.785C20.3161 227.299 20.8882 227.726 21.6613 228.064C22.4344 228.407 23.2676 228.576 24.1588 228.576ZM37.7886 228.236V220.365C37.7886 219.288 37.9336 218.295 38.2155 217.389C38.4062 216.795 38.7233 216.329 39.1689 215.995C39.6146 215.658 40.1182 215.491 40.6778 215.491C41.3038 215.491 41.9297 215.677 42.5557 216.044L43.4386 213.678C42.5474 213.131 41.6686 212.857 40.8063 212.857C40.2073 212.857 39.6602 213.028 39.1627 213.366C38.6653 213.707 38.1223 214.41 37.5336 215.477V213.197H35.2288V228.238H37.7886V228.236ZM51.0929 228.576C52.4111 228.576 53.6278 228.269 54.7408 227.656C55.8559 227.041 56.7056 226.181 57.2901 225.071C57.8705 223.961 58.1627 222.438 58.1627 220.503C58.1627 218.114 57.5036 216.242 56.1854 214.887C54.8672 213.533 53.1697 212.854 51.0929 212.854C49.2234 212.854 47.6399 213.412 46.3403 214.526C44.7858 215.867 44.0065 217.93 44.0065 220.715C44.0065 223.255 44.6594 225.201 45.9631 226.55C47.2689 227.901 48.9767 228.576 51.0929 228.576ZM51.0929 226.48C49.812 226.48 48.7508 226.001 47.9052 225.042C47.0616 224.085 46.6409 222.642 46.6409 220.715C46.6409 218.79 47.0616 217.35 47.9052 216.395C48.7487 215.442 49.812 214.965 51.0929 214.965C52.3531 214.965 53.4101 215.444 54.2578 216.403C55.1076 217.361 55.5325 218.77 55.5325 220.631C55.5325 222.603 55.1097 224.072 54.2661 225.036C53.4205 225.999 52.3634 226.48 51.0929 226.48ZM63.7278 234V226.678C64.163 227.227 64.7206 227.679 65.3983 228.04C66.0761 228.397 66.843 228.576 67.6969 228.576C68.8638 228.576 69.9768 228.246 71.0339 227.592C72.0909 226.936 72.8972 225.991 73.4527 224.759C74.0061 223.527 74.2838 222.141 74.2838 220.602C74.2838 219.168 74.033 217.847 73.5293 216.645C73.0278 215.44 72.2816 214.507 71.2971 213.847C70.3105 213.187 69.1706 212.857 67.8814 212.857C66.8948 212.857 66.0574 213.046 65.3631 213.428C64.6708 213.812 64.049 214.385 63.4977 215.149V213.195H61.166V234H63.7278ZM67.5249 226.48C66.4056 226.48 65.4522 226.018 64.6646 225.091C63.877 224.167 63.4832 222.735 63.4832 220.8C63.4832 218.865 63.904 217.389 64.7434 216.374C65.5828 215.359 66.5487 214.852 67.6389 214.852C68.7394 214.852 69.6867 215.328 70.4784 216.284C71.2702 217.237 71.666 218.671 71.666 220.587C71.666 222.599 71.2598 224.085 70.4494 225.044C69.639 226.001 68.6648 226.48 67.527 226.48H67.5249ZM82.1516 210.249V207.346H79.4778V210.249H82.1516ZM87.4576 210.249V207.346H84.7838V210.249H87.4576ZM81.6686 228.576C82.6739 228.576 83.6169 228.411 84.4916 228.081C85.3704 227.751 86.2824 227.183 87.2316 226.381C87.3063 227.089 87.4783 227.708 87.7436 228.238H90.4173C90.096 227.66 89.8784 227.058 89.7706 226.43C89.6629 225.803 89.6069 224.305 89.6069 221.933V218.534C89.6069 217.4 89.5654 216.618 89.4784 216.182C89.3271 215.485 89.0639 214.907 88.6825 214.449C88.3032 213.991 87.7104 213.61 86.9042 213.308C86.0979 213.007 85.0491 212.854 83.7599 212.854C82.4604 212.854 81.3184 213.032 80.3318 213.387C79.3452 213.74 78.5908 214.245 78.0684 214.901C77.5461 215.557 77.1731 216.42 76.9451 217.486L79.4488 217.827C79.7245 216.76 80.1473 216.015 80.7214 215.596C81.2956 215.176 82.1847 214.965 83.3889 214.965C84.6802 214.965 85.6523 215.254 86.3072 215.83C86.7902 216.255 87.0327 216.985 87.0327 218.025L87.0182 218.689C86.0419 219.03 84.5185 219.323 82.45 219.568C81.4344 219.692 80.6779 219.818 80.1743 219.95C79.4903 220.14 78.8768 220.418 78.3317 220.785C77.7866 221.155 77.3451 221.644 77.0093 222.25C76.6715 222.861 76.5036 223.534 76.5036 224.272C76.5036 225.527 76.9492 226.558 77.8405 227.365C78.7317 228.172 80.0084 228.576 81.6686 228.576ZM82.2801 226.579C81.2852 226.579 80.5287 226.352 80.0105 225.898C79.4924 225.444 79.2353 224.879 79.2353 224.2C79.2353 223.756 79.3535 223.354 79.5918 222.989C79.8281 222.626 80.1639 222.349 80.6012 222.16C81.0365 221.972 81.7826 221.801 82.8355 221.65C84.6947 221.386 86.0896 221.064 87.0182 220.686V221.621C87.0182 222.745 86.8814 223.596 86.6036 224.171C86.2451 224.918 85.6813 225.504 84.9123 225.935C84.1455 226.364 83.2667 226.579 82.2801 226.579ZM96.1523 210.403V207.474H93.5905V210.403H96.1523ZM96.1523 228.236V213.195H93.5905V228.236H96.1523ZM105.485 228.576C106.671 228.576 107.734 228.37 108.673 227.959C109.612 227.549 110.331 226.969 110.829 226.218C111.326 225.467 111.575 224.666 111.575 223.816C111.575 222.95 111.372 222.221 110.963 221.635C110.555 221.052 109.993 220.604 109.278 220.299C108.561 219.989 107.297 219.597 105.485 219.114C104.234 218.776 103.479 218.557 103.224 218.464C102.779 218.285 102.451 218.058 102.242 217.783C102.035 217.519 101.931 217.222 101.931 216.892C101.931 216.372 102.18 215.918 102.683 215.53C103.185 215.145 104.024 214.953 105.202 214.953C106.196 214.953 106.967 215.169 107.513 215.603C108.06 216.036 108.389 216.64 108.503 217.416L111.007 217.076C110.845 216.104 110.551 215.326 110.124 214.744C109.697 214.167 109.036 213.704 108.138 213.364C107.243 213.026 106.203 212.854 105.017 212.854C104.229 212.854 103.492 212.958 102.803 213.16C102.115 213.362 101.572 213.61 101.174 213.903C100.644 214.28 100.223 214.755 99.9163 215.326C99.6074 215.898 99.4541 216.519 99.4541 217.189C99.4541 217.926 99.6406 218.598 100.014 219.207C100.391 219.816 100.94 220.292 101.666 220.637C102.391 220.981 103.693 221.39 105.57 221.862C106.965 222.213 107.838 222.5 108.188 222.727C108.692 223.057 108.943 223.511 108.943 224.087C108.943 224.728 108.659 225.287 108.089 225.764C107.521 226.241 106.648 226.48 105.471 226.48C104.304 226.48 103.398 226.212 102.748 225.673C102.097 225.135 101.701 224.361 101.56 223.35L99.0271 223.746C99.311 225.343 99.9681 226.546 100.996 227.357C102.026 228.17 103.523 228.574 105.485 228.574V228.576ZM120.709 228.576C122.361 228.576 123.752 228.087 124.885 227.111C126.019 226.133 126.724 224.78 127 223.053L124.479 222.727C124.299 224.002 123.874 224.945 123.2 225.56C122.527 226.173 121.687 226.48 120.682 226.48C119.43 226.48 118.415 226.022 117.635 225.106C116.858 224.19 116.471 222.723 116.471 220.701C116.471 218.71 116.873 217.253 117.679 216.333C118.487 215.411 119.534 214.951 120.823 214.951C121.677 214.951 122.405 215.207 123.008 215.714C123.609 216.226 124.029 216.985 124.266 217.996L126.757 217.614C126.463 216.094 125.793 214.92 124.751 214.094C123.706 213.269 122.365 212.857 120.724 212.857C119.424 212.857 118.222 213.16 117.117 213.768C116.012 214.377 115.19 215.291 114.651 216.508C114.108 217.726 113.838 219.149 113.838 220.773C113.838 223.284 114.466 225.213 115.724 226.558C116.98 227.904 118.643 228.576 120.709 228.576ZM131.75 228.236V220.008C131.75 218.827 131.893 217.903 132.177 217.231C132.463 216.562 132.938 216.03 133.607 215.638C134.277 215.246 134.99 215.05 135.748 215.05C136.764 215.05 137.549 215.341 138.103 215.92C138.658 216.502 138.936 217.431 138.936 218.706V228.238H141.498V218.706C141.498 217.231 141.32 216.106 140.963 215.334C140.607 214.559 140.018 213.952 139.191 213.513C138.366 213.075 137.394 212.854 136.275 212.854C134.455 212.854 132.946 213.544 131.75 214.924V207.474H129.19V228.236H131.75ZM151.741 228.576C153.496 228.576 154.937 228.151 156.066 227.301C157.194 226.451 157.967 225.258 158.386 223.717L155.739 223.393C155.349 224.468 154.823 225.252 154.16 225.743C153.496 226.234 152.694 226.48 151.755 226.48C150.493 226.48 149.44 226.04 148.597 225.164C147.753 224.285 147.283 223.018 147.187 221.367H158.456C158.467 221.064 158.471 220.839 158.471 220.686C158.471 218.204 157.83 216.277 156.549 214.909C155.268 213.539 153.619 212.854 151.598 212.854C149.513 212.854 147.813 213.554 146.505 214.951C145.195 216.35 144.542 218.314 144.542 220.843C144.542 223.288 145.189 225.188 146.485 226.544C147.778 227.899 149.531 228.576 151.741 228.576ZM155.768 219.271H147.33C147.415 217.959 147.859 216.911 148.661 216.127C149.463 215.343 150.452 214.951 151.627 214.951C152.926 214.951 153.983 215.442 154.798 216.424C155.331 217.057 155.654 218.006 155.768 219.271ZM164.133 228.236V220.365C164.133 219.288 164.276 218.295 164.56 217.389C164.751 216.795 165.068 216.329 165.514 215.995C165.959 215.658 166.463 215.491 167.022 215.491C167.648 215.491 168.274 215.677 168.9 216.044L169.781 213.678C168.89 213.131 168.013 212.857 167.149 212.857C166.552 212.857 166.005 213.028 165.507 213.366C165.01 213.707 164.465 214.41 163.878 215.477V213.197H161.573V228.238H164.133V228.236ZM187.681 228.591C189.171 228.591 190.51 228.318 191.702 227.776C192.891 227.233 193.803 226.474 194.437 225.496C195.074 224.518 195.391 223.478 195.391 222.372C195.391 221.258 195.103 220.274 194.524 219.42C193.944 218.565 193.049 217.86 191.836 217.303C191.001 216.925 189.461 216.484 187.218 215.978C184.976 215.473 183.587 214.98 183.056 214.499C182.518 214.016 182.246 213.403 182.246 212.656C182.246 211.798 182.627 211.064 183.39 210.455C184.155 209.846 185.372 209.541 187.04 209.541C188.644 209.541 189.855 209.875 190.676 210.546C191.496 211.216 191.977 212.209 192.12 213.521L194.767 213.323C194.719 212.106 194.377 211.012 193.741 210.051C193.107 209.087 192.199 208.359 191.018 207.864C189.836 207.368 188.472 207.121 186.926 207.121C185.523 207.121 184.246 207.356 183.1 207.826C181.952 208.301 181.079 208.99 180.482 209.902C179.883 210.814 179.585 211.792 179.585 212.84C179.585 213.795 179.829 214.656 180.319 215.425C180.806 216.195 181.548 216.841 182.545 217.358C183.311 217.765 184.654 218.196 186.572 218.654C188.487 219.112 189.724 219.451 190.284 219.667C191.156 219.997 191.782 220.406 192.162 220.893C192.541 221.38 192.732 221.947 192.732 222.599C192.732 223.241 192.535 223.833 192.141 224.377C191.747 224.92 191.146 225.347 190.342 225.657C189.534 225.97 188.605 226.125 187.552 226.125C186.366 226.125 185.299 225.919 184.352 225.51C183.403 225.098 182.704 224.561 182.252 223.895C181.803 223.23 181.514 222.378 181.392 221.338L178.789 221.565C178.826 222.954 179.208 224.198 179.933 225.298C180.658 226.397 181.66 227.221 182.936 227.769C184.211 228.316 185.792 228.591 187.683 228.591H187.681ZM204.966 228.576C206.287 228.576 207.503 228.269 208.616 227.656C209.731 227.041 210.581 226.181 211.166 225.071C211.746 223.961 212.038 222.438 212.038 220.503C212.038 218.114 211.379 216.242 210.061 214.887C208.743 213.533 207.045 212.854 204.969 212.854C203.099 212.854 201.515 213.412 200.216 214.526C198.661 215.867 197.882 217.93 197.882 220.715C197.882 223.255 198.535 225.201 199.839 226.55C201.144 227.901 202.852 228.576 204.969 228.576H204.966ZM204.966 226.48C203.688 226.48 202.624 226.001 201.781 225.042C200.937 224.085 200.514 222.642 200.514 220.715C200.514 218.79 200.937 217.35 201.779 216.395C202.624 215.442 203.686 214.965 204.969 214.965C206.229 214.965 207.284 215.444 208.133 216.403C208.983 217.361 209.406 218.77 209.406 220.631C209.406 222.603 208.985 224.072 208.142 225.036C207.296 225.999 206.239 226.48 204.969 226.48H204.966ZM227.063 228.236V226.04H220.078C219.073 226.04 217.995 226.082 216.849 226.168L218.426 224.427L226.609 214.881V213.195H214.258V215.262H220.42C221.253 215.262 222.217 215.235 223.307 215.18L213.69 226.168V228.236H227.063ZM232.187 210.405V207.474H229.625V210.403H232.187V210.405ZM232.187 228.236V213.195H229.625V228.236H232.187ZM240.382 228.576C241.387 228.576 242.328 228.411 243.205 228.081C244.084 227.751 244.996 227.183 245.945 226.381C246.019 227.089 246.191 227.708 246.457 228.238H249.13C248.809 227.66 248.592 227.058 248.484 226.43C248.374 225.803 248.32 224.305 248.32 221.933V218.534C248.32 217.4 248.279 216.618 248.192 216.182C248.04 215.485 247.775 214.907 247.396 214.449C247.016 213.991 246.422 213.61 245.617 213.308C244.809 213.007 243.762 212.854 242.473 212.854C241.174 212.854 240.029 213.032 239.043 213.387C238.056 213.74 237.302 214.245 236.782 214.901C236.259 215.557 235.884 216.42 235.658 217.486L238.162 217.827C238.436 216.76 238.861 216.015 239.435 215.596C240.009 215.176 240.898 214.965 242.102 214.965C243.393 214.965 244.365 215.254 245.018 215.83C245.503 216.255 245.744 216.985 245.744 218.025L245.731 218.689C244.753 219.03 243.232 219.323 241.163 219.568C240.148 219.692 239.389 219.818 238.887 219.95C238.203 220.14 237.59 220.418 237.043 220.785C236.5 221.155 236.058 221.644 235.72 222.25C235.385 222.861 235.217 223.534 235.217 224.272C235.217 225.527 235.662 226.558 236.554 227.365C237.445 228.172 238.722 228.576 240.382 228.576ZM240.993 226.579C239.998 226.579 239.24 226.352 238.724 225.898C238.206 225.444 237.949 224.879 237.949 224.2C237.949 223.756 238.067 223.354 238.303 222.989C238.541 222.626 238.877 222.349 239.314 222.16C239.75 221.972 240.496 221.801 241.547 221.65C243.406 221.386 244.801 221.064 245.731 220.686V221.621C245.731 222.745 245.592 223.596 245.317 224.171C244.958 224.918 244.392 225.504 243.626 225.935C242.857 226.364 241.98 226.579 240.993 226.579ZM254.793 228.236V207.474H252.233V228.236H254.793ZM261.923 228.236V215.178H264.866V213.195H261.923V211.806C261.923 210.901 262.082 210.282 262.406 209.951C262.729 209.621 263.278 209.456 264.056 209.456C264.532 209.456 265.034 209.504 265.565 209.597L265.948 207.375C265.077 207.203 264.28 207.119 263.558 207.119C262.439 207.119 261.568 207.325 260.947 207.736C260.325 208.146 259.892 208.683 259.645 209.343C259.465 209.834 259.376 210.585 259.376 211.594V213.195H257.112V215.178H259.376V228.238H261.923V228.236ZM272.991 228.576C274.309 228.576 275.526 228.269 276.641 227.656C277.756 227.041 278.604 226.181 279.188 225.071C279.771 223.961 280.063 222.438 280.063 220.503C280.063 218.114 279.404 216.242 278.085 214.887C276.767 213.533 275.07 212.854 272.991 212.854C271.123 212.854 269.54 213.412 268.24 214.526C266.684 215.867 265.907 217.93 265.907 220.715C265.907 223.255 266.557 225.201 267.863 226.55C269.167 227.901 270.877 228.576 272.991 228.576ZM272.991 226.48C271.712 226.48 270.649 226.001 269.805 225.042C268.96 224.085 268.539 222.642 268.539 220.715C268.539 218.79 268.96 217.35 269.803 216.395C270.649 215.442 271.71 214.965 272.991 214.965C274.253 214.965 275.308 215.444 276.158 216.403C277.008 217.361 277.43 218.77 277.43 220.631C277.43 222.603 277.008 224.072 276.166 225.036C275.32 225.999 274.263 226.48 272.991 226.48ZM285.626 228.236V220.022C285.626 218.095 286.022 216.787 286.813 216.098C287.605 215.409 288.548 215.066 289.638 215.066C290.322 215.066 290.917 215.219 291.423 215.524C291.931 215.832 292.285 216.242 292.484 216.756C292.683 217.272 292.783 218.048 292.783 219.087V228.236H295.344V218.988C295.344 217.808 295.297 216.981 295.199 216.508C295.05 215.782 294.785 215.155 294.405 214.625C294.024 214.096 293.452 213.669 292.689 213.345C291.927 213.017 291.089 212.854 290.179 212.854C288.082 212.854 286.48 213.68 285.371 215.334V213.195H283.064V228.236H285.626ZM304.847 228.576C306.707 228.576 308.116 227.829 309.074 226.338V228.236H311.449V207.474H308.904V214.922C308.456 214.309 307.878 213.812 307.167 213.428C306.456 213.046 305.645 212.854 304.733 212.854C303.49 212.854 302.367 213.18 301.361 213.832C300.356 214.484 299.602 215.421 299.1 216.645C298.596 217.866 298.346 219.228 298.346 220.73C298.346 222.269 298.623 223.631 299.179 224.815C299.732 226.001 300.516 226.924 301.525 227.584C302.536 228.244 303.643 228.574 304.847 228.574V228.576ZM305.09 226.48C303.979 226.48 303.017 226.003 302.201 225.05C301.386 224.095 300.978 222.657 300.978 220.73C300.978 218.737 301.359 217.278 302.124 216.354C302.887 215.427 303.838 214.965 304.976 214.965C306.143 214.965 307.123 215.448 307.919 216.409C308.717 217.373 309.117 218.885 309.117 220.942C309.117 222.812 308.723 224.202 307.942 225.114C307.161 226.024 306.209 226.48 305.09 226.48ZM320.91 228.576C322.096 228.576 323.159 228.37 324.098 227.959C325.037 227.549 325.756 226.969 326.254 226.218C326.751 225.467 327 224.666 327 223.816C327 222.95 326.797 222.221 326.389 221.635C325.98 221.052 325.419 220.604 324.703 220.299C323.986 219.989 322.722 219.597 320.91 219.114C319.659 218.776 318.904 218.557 318.649 218.464C318.204 218.285 317.876 218.058 317.667 217.783C317.46 217.519 317.356 217.222 317.356 216.892C317.356 216.372 317.605 215.918 318.108 215.53C318.612 215.145 319.451 214.953 320.627 214.953C321.621 214.953 322.392 215.169 322.938 215.603C323.485 216.036 323.814 216.64 323.928 217.416L326.432 217.076C326.27 216.104 325.976 215.326 325.549 214.744C325.122 214.167 324.461 213.704 323.566 213.364C322.668 213.026 321.628 212.854 320.442 212.854C319.654 212.854 318.917 212.958 318.229 213.16C317.542 213.362 316.999 213.61 316.599 213.903C316.069 214.28 315.65 214.755 315.341 215.326C315.032 215.898 314.879 216.519 314.879 217.189C314.879 217.926 315.066 218.598 315.439 219.207C315.816 219.816 316.365 220.292 317.091 220.637C317.816 220.981 319.118 221.39 320.995 221.862C322.39 222.213 323.263 222.5 323.615 222.727C324.117 223.057 324.368 223.511 324.368 224.087C324.368 224.728 324.084 225.287 323.516 225.764C322.946 226.241 322.073 226.48 320.896 226.48C319.731 226.48 318.823 226.212 318.173 225.673C317.522 225.135 317.126 224.361 316.985 223.35L314.452 223.746C314.736 225.343 315.393 226.546 316.421 227.357C317.451 228.17 318.948 228.574 320.91 228.574V228.576Z" fill="#1A1919"/>
</svg>
