<svg width="352" height="216" viewBox="0 0 352 216" fill="none" xmlns="http://www.w3.org/2000/svg">
    <g filter="url(#filter0_d_2158_51007)">
        <path d="M295.032 140.311C327.419 138.782 347 130.443 347 105.832C347 42.6229 311.5 9.0001 204.5 2.33175C170.006 0.18201 125.166 1.18314 91.5 8.99905C60 16.3121 4.5 34.4083 4.5 97.4997C4.5 156.726 91 131 127.5 131C176.738 131 218.986 144.891 240.704 191.932C243.906 198.868 246.232 203.906 249 205.832C260.5 213.832 279.381 191.417 286 166.832C288.774 156.528 291.863 147.755 295.032 140.311Z" fill="white"/>
        <path d="M295.032 140.311C327.419 138.782 347 130.443 347 105.832C347 42.6229 311.5 9.0001 204.5 2.33175C170.006 0.18201 125.166 1.18314 91.5 8.99905C60 16.3121 4.5 34.4083 4.5 97.4997C4.5 156.726 91 131 127.5 131C176.738 131 218.986 144.891 240.704 191.932C243.906 198.868 246.232 203.906 249 205.832C260.5 213.832 279.381 191.417 286 166.832C288.774 156.528 291.863 147.755 295.032 140.311Z" stroke="#C6CDD2"/>
    </g>
    <defs>
        <filter id="filter0_d_2158_51007" x="0" y="0.845703" width="351.5" height="215.135" filterUnits="userSpaceOnUse" color-interpolation-filters="sRGB">
            <feFlood flood-opacity="0" result="BackgroundImageFix"/>
            <feColorMatrix in="SourceAlpha" type="matrix" values="0 0 0 0 0 0 0 0 0 0 0 0 0 0 0 0 0 0 127 0" result="hardAlpha"/>
            <feOffset dy="4"/>
            <feGaussianBlur stdDeviation="2"/>
            <feColorMatrix type="matrix" values="0 0 0 0 0 0 0 0 0 0 0 0 0 0 0 0 0 0 0.24 0"/>
            <feBlend mode="normal" in2="BackgroundImageFix" result="effect1_dropShadow_2158_51007"/>
            <feBlend mode="normal" in="SourceGraphic" in2="effect1_dropShadow_2158_51007" result="shape"/>
        </filter>
    </defs>
</svg>
