<svg width="3416" height="1036" viewBox="0 0 3416 1036" fill="none" xmlns="http://www.w3.org/2000/svg">
<path d="M3416 398.918V945.794C3416 945.794 2675.65 1022.3 2192.35 1034.16C833 1067.49 0 638.021 0 638.021V139.502C0 139.502 773.212 0 1283.5 0C2132.5 0 3416 398.918 3416 398.918Z" fill="url(#paint0_radial_2253_46319)"/>
<rect opacity="0.08" x="2408.52" y="386.596" width="33.483" height="33.483" rx="6" transform="rotate(31.5023 2408.52 386.596)" fill="#45AFFC"/>
<rect opacity="0.08" x="1101.77" y="535" width="21.7943" height="21.7943" rx="8" transform="rotate(54.6507 1101.77 535)" fill="#45AFFC"/>
<path opacity="0.08" d="M1062.12 566.874C1071.17 565.05 1078.81 573.709 1075.86 582.46L1065.92 611.997C1062.97 620.748 1051.66 623.029 1045.55 616.101L1024.94 592.722C1018.84 585.795 1022.52 574.856 1031.57 573.032L1062.12 566.874Z" fill="#09D693"/>
<path opacity="0.08" d="M740.121 144.937C749.173 143.113 756.806 151.771 753.86 160.523L743.917 190.059C740.971 198.811 729.656 201.091 723.55 194.164L702.942 170.785C696.836 163.858 700.519 152.919 709.571 151.094L740.121 144.937Z" fill="#ADF0D9"/>
<path opacity="0.08" d="M576.121 267.091C585.173 265.267 592.806 273.926 589.86 282.677L579.917 312.213C576.971 320.965 565.656 323.245 559.55 316.318L538.942 292.939C532.836 286.012 536.519 275.073 545.571 273.248L576.121 267.091Z" fill="#ADF0D9"/>
<path opacity="0.08" d="M1384.09 477.24C1387 476.159 1389.99 478.633 1389.47 481.692L1387.72 492.018C1387.2 495.078 1383.57 496.429 1381.18 494.45L1373.11 487.771C1370.72 485.792 1371.37 481.968 1374.28 480.887L1384.09 477.24Z" fill="#ADF0D9"/>
<circle opacity="0.08" cx="2000" cy="115.217" r="25" fill="#48CADA"/>
<circle opacity="0.08" cx="2730.5" cy="717.717" r="14.5" fill="#48CADA"/>
<circle opacity="0.08" cx="1663" cy="371.217" r="25" fill="#48CADA"/>
<circle opacity="0.08" cx="1001" cy="233.217" r="11" fill="#06EEC1"/>
<circle opacity="0.08" cx="582" cy="302.217" r="11" fill="#06EEC1"/>
<circle opacity="0.08" cx="568.5" cy="261.717" r="23.5" fill="#06EEC1"/>
<circle opacity="0.08" cx="744.5" cy="353.717" r="17.5" fill="#06EEC1"/>
<circle opacity="0.08" cx="2302.5" cy="187.717" r="33.5" fill="#1DE686"/>
<circle opacity="0.08" cx="1026.5" cy="419.717" r="25.5" fill="#1DE686"/>
<circle opacity="0.08" cx="2287.5" cy="826.717" r="40.5" fill="#1DE686"/>
<circle opacity="0.08" cx="1255.5" cy="84.7168" r="40.5" fill="#1DE686"/>
<circle opacity="0.08" cx="639.5" cy="665.717" r="40.5" fill="#1DE686"/>
<path opacity="0.08" d="M3103.34 542.672C3118.85 539.545 3131.93 554.385 3126.88 569.385L3109.84 620.008C3104.79 635.007 3085.4 638.916 3074.93 627.043L3039.61 586.973C3029.15 575.101 3035.46 556.351 3050.98 553.225L3103.34 542.672Z" fill="#ADF0D9"/>
<path opacity="0.08" d="M1770.39 654.069C1778.9 652.355 1786.07 660.49 1783.3 668.711L1773.96 696.458C1771.19 704.68 1760.56 706.822 1754.82 700.315L1735.46 678.352C1729.73 671.844 1733.19 661.567 1741.69 659.853L1770.39 654.069Z" fill="#ADF0D9"/>
<path opacity="0.08" d="M2757.3 696.349C2763.31 695.138 2768.37 700.885 2766.42 706.693L2759.82 726.294C2757.86 732.102 2750.35 733.616 2746.3 729.019L2732.63 713.503C2728.57 708.906 2731.02 701.646 2737.02 700.435L2757.3 696.349Z" fill="#ADF0D9"/>
<path opacity="0.08" d="M1712.36 350.664C1724.4 348.237 1734.55 359.755 1730.63 371.395L1717.41 410.683C1713.49 422.323 1698.44 425.357 1690.32 416.143L1662.91 385.045C1654.79 375.831 1659.68 361.281 1671.72 358.854L1712.36 350.664Z" fill="#ADF0D9"/>
<rect opacity="0.08" x="1407.07" y="508" width="34.0389" height="34.0389" rx="4" transform="rotate(45 1407.07 508)" fill="#FFB59E"/>
<rect opacity="0.08" x="2733.58" y="589.668" width="60.2507" height="60.2507" rx="16" transform="rotate(30 2733.58 589.668)" fill="#FFB59E"/>
<rect opacity="0.08" x="2174.58" y="386.217" width="83.1654" height="83.1654" rx="12" transform="rotate(30 2174.58 386.217)" fill="#FFB59E"/>
<rect opacity="0.08" x="1006" y="685.871" width="52.1353" height="52.1353" rx="12" transform="rotate(-36.6676 1006 685.871)" fill="#FFB59E"/>
<rect opacity="0.08" x="1805.58" y="581.217" width="83.1654" height="83.1654" rx="12" transform="rotate(30 1805.58 581.217)" fill="#FFB59E"/>
<rect opacity="0.08" x="598.828" y="625.119" width="41.5106" height="41.5106" rx="12" transform="rotate(30 598.828 625.119)" fill="#FFB59E"/>
<rect opacity="0.08" x="786.59" y="112" width="65.4651" height="65.4651" rx="12" transform="rotate(66.3814 786.59 112)" fill="#FFB59E"/>
<circle opacity="0.08" cx="3190" cy="462.217" r="25" fill="#48CADA"/>
<rect opacity="0.08" x="3045.89" y="750" width="39.2417" height="39.2417" rx="16" transform="rotate(66.1536 3045.89 750)" fill="#FFB59E"/>
<path opacity="0.08" d="M293.121 665.091C302.173 663.267 309.806 671.926 306.86 680.677L296.917 710.213C293.971 718.965 282.656 721.245 276.55 714.318L255.942 690.939C249.836 684.012 253.519 673.073 262.571 671.248L293.121 665.091Z" fill="#ADF0D9"/>
<circle opacity="0.08" cx="312.5" cy="249.5" r="17.5" fill="#06EEC1"/>
<circle opacity="0.08" cx="277.5" cy="481.717" r="17.5" fill="#06EEC1"/>
<circle opacity="0.08" cx="158.5" cy="416.717" r="40.5" fill="#1DE686"/>
<defs>
<radialGradient id="paint0_radial_2253_46319" cx="0" cy="0" r="1" gradientUnits="userSpaceOnUse" gradientTransform="translate(725.001 -66.11) rotate(50.2422) scale(1402.56 25350.9)">
<stop stop-color="#ADCCFF"/>
<stop offset="1" stop-color="#EBF5FF"/>
</radialGradient>
</defs>
</svg>
