<svg width="519" height="152" viewBox="0 0 519 152" fill="none" xmlns="http://www.w3.org/2000/svg">
    <g filter="url(#filter0_d_2143_45789)">
        <path d="M308.754 143.236C423.99 143.479 513.997 143.669 513.997 84.4262C513.997 21.3348 411.918 1 285.997 1C169.498 1 95.998 20 59.6789 70.9725C52.0185 81.7234 40.423 86.0576 29.998 88.5C17.2991 91.4752 4.73151 89.6674 4.55626 97.4238C4.10163 117.545 32.0838 127.297 61.9983 132.5C107.998 140.5 180.778 143.41 263.24 143.236C270.725 143.22 278.317 143.204 285.997 143.204C293.677 143.204 301.269 143.22 308.754 143.236Z" fill="white"/>
        <path d="M308.754 143.236C423.99 143.479 513.997 143.669 513.997 84.4262C513.997 21.3348 411.918 1 285.997 1C169.498 1 95.998 20 59.6789 70.9725C52.0185 81.7234 40.423 86.0576 29.998 88.5C17.2991 91.4752 4.73151 89.6674 4.55626 97.4238C4.10163 117.545 32.0838 127.297 61.9983 132.5C107.998 140.5 180.778 143.41 263.24 143.236C270.725 143.22 278.317 143.204 285.997 143.204C293.677 143.204 301.269 143.22 308.754 143.236Z" stroke="#C6CDD2"/>
    </g>
    <defs>
        <filter id="filter0_d_2143_45789" x="0.0507812" y="0.5" width="518.445" height="151.266" filterUnits="userSpaceOnUse" color-interpolation-filters="sRGB">
            <feFlood flood-opacity="0" result="BackgroundImageFix"/>
            <feColorMatrix in="SourceAlpha" type="matrix" values="0 0 0 0 0 0 0 0 0 0 0 0 0 0 0 0 0 0 127 0" result="hardAlpha"/>
            <feOffset dy="4"/>
            <feGaussianBlur stdDeviation="2"/>
            <feColorMatrix type="matrix" values="0 0 0 0 0 0 0 0 0 0 0 0 0 0 0 0 0 0 0.24 0"/>
            <feBlend mode="normal" in2="BackgroundImageFix" result="effect1_dropShadow_2143_45789"/>
            <feBlend mode="normal" in="SourceGraphic" in2="effect1_dropShadow_2143_45789" result="shape"/>
        </filter>
    </defs>
</svg>
