<svg width="351" height="206" viewBox="0 0 351 206" fill="none" xmlns="http://www.w3.org/2000/svg">
    <g filter="url(#filter0_d_2158_50961)">
        <path d="M215.5 171C279.5 160.239 346.5 138.5 346.5 91.5C346.5 12.0031 232.499 -20.0015 115.999 14.9994C22.8419 42.9873 -41.9998 127.135 46.5699 153.239C83.0817 164 107.135 168.461 131 171C154.5 173.5 168.5 197 188.5 197C196.18 197 201.475 173.358 215.5 171Z" fill="white"/>
        <path d="M215.5 171C279.5 160.239 346.5 138.5 346.5 91.5C346.5 12.0031 232.499 -20.0015 115.999 14.9994C22.8419 42.9873 -41.9998 127.135 46.5699 153.239C83.0817 164 107.135 168.461 131 171C154.5 173.5 168.5 197 188.5 197C196.18 197 201.475 173.358 215.5 171Z" stroke="#C6CDD2"/>
    </g>
    <defs>
        <filter id="filter0_d_2158_50961" x="0.00390625" y="0.417969" width="350.996" height="205.082" filterUnits="userSpaceOnUse" color-interpolation-filters="sRGB">
            <feFlood flood-opacity="0" result="BackgroundImageFix"/>
            <feColorMatrix in="SourceAlpha" type="matrix" values="0 0 0 0 0 0 0 0 0 0 0 0 0 0 0 0 0 0 127 0" result="hardAlpha"/>
            <feOffset dy="4"/>
            <feGaussianBlur stdDeviation="2"/>
            <feColorMatrix type="matrix" values="0 0 0 0 0 0 0 0 0 0 0 0 0 0 0 0 0 0 0.24 0"/>
            <feBlend mode="normal" in2="BackgroundImageFix" result="effect1_dropShadow_2158_50961"/>
            <feBlend mode="normal" in="SourceGraphic" in2="effect1_dropShadow_2158_50961" result="shape"/>
        </filter>
    </defs>
</svg>
