<svg width="40" height="40" viewBox="0 0 40 40" fill="none" xmlns="http://www.w3.org/2000/svg">
    <path opacity="0.99" d="M33.2999 8.31641C32.8499 8.32974 32.4466 8.52141 32.1549 8.82141L14.9999 25.9764L7.8449 18.8214C7.54156 18.5047 7.1149 18.3097 6.64323 18.3097C5.72323 18.3097 4.97656 19.0564 4.97656 19.9764C4.97656 20.4481 5.17323 20.8747 5.48823 21.1781L13.8216 29.5114C14.1232 29.8131 14.5399 29.9997 14.9999 29.9997C15.4599 29.9997 15.8766 29.8131 16.1782 29.5114L34.5116 11.1781C34.8232 10.8747 35.0166 10.4514 35.0166 9.98307C35.0166 9.06307 34.2699 8.31641 33.3499 8.31641C33.3332 8.31641 33.3149 8.31641 33.2982 8.31641H33.3016H33.2999Z" fill="#007FFF"/>
</svg>
