<svg width="427" height="149" viewBox="0 0 427 149" fill="none" xmlns="http://www.w3.org/2000/svg">
    <g filter="url(#filter0_d_2143_48057)">
        <path d="M272.111 136.024C341.291 141.819 417.222 148.18 421.568 100.872C428.764 22.5429 345.316 -5.01461 223.047 2.06998C106.498 8.82315 47.6385 24.2156 19.5329 75.5933C7.88538 96.8851 0.711494 124.723 7.84144 131.843C12.1582 136.154 18.8987 135.439 26.462 130.514C33.4957 125.934 39.5253 122.182 47.3392 119.141C68.4242 138.433 115.993 137.709 198.135 132.763C218.525 131.535 244.791 133.735 272.111 136.024Z" fill="white"/>
        <path d="M272.111 136.024C341.291 141.819 417.222 148.18 421.568 100.872C428.764 22.5429 345.316 -5.01461 223.047 2.06998C106.498 8.82315 47.6385 24.2156 19.5329 75.5933C7.88538 96.8851 0.711494 124.723 7.84144 131.843C12.1582 136.154 18.8987 135.439 26.462 130.514C33.4957 125.934 39.5253 122.182 47.3392 119.141C68.4242 138.433 115.993 137.709 198.135 132.763C218.525 131.535 244.791 133.735 272.111 136.024Z" stroke="#C6CDD2"/>
    </g>
    <defs>
        <filter id="filter0_d_2143_48057" x="0.5" y="0.5" width="426" height="148" filterUnits="userSpaceOnUse" color-interpolation-filters="sRGB">
            <feFlood flood-opacity="0" result="BackgroundImageFix"/>
            <feColorMatrix in="SourceAlpha" type="matrix" values="0 0 0 0 0 0 0 0 0 0 0 0 0 0 0 0 0 0 127 0" result="hardAlpha"/>
            <feOffset dy="4"/>
            <feGaussianBlur stdDeviation="2"/>
            <feColorMatrix type="matrix" values="0 0 0 0 0 0 0 0 0 0 0 0 0 0 0 0 0 0 0.24 0"/>
            <feBlend mode="normal" in2="BackgroundImageFix" result="effect1_dropShadow_2143_48057"/>
            <feBlend mode="normal" in="SourceGraphic" in2="effect1_dropShadow_2143_48057" result="shape"/>
        </filter>
    </defs>
</svg>
