<svg width="350" height="172" viewBox="0 0 350 172" fill="none" xmlns="http://www.w3.org/2000/svg">
    <g filter="url(#filter0_d_2158_51036)">
        <path d="M345.004 76.4975C352.199 -1.83176 248.307 1.06679 176.05 1.06885C87.5037 1.07137 3.00201 11.5 5.00362 76.4989C5.5216 93.3195 17.5447 127.262 64.002 131C151.002 138 153.502 167.5 168.002 163C180.454 159.135 163.002 131 211.002 131C276.095 131 337.542 157.719 345.004 76.4975Z" fill="white"/>
        <path d="M345.004 76.4975C352.199 -1.83176 248.307 1.06679 176.05 1.06885C87.5037 1.07137 3.00201 11.5 5.00362 76.4989C5.5216 93.3195 17.5447 127.262 64.002 131C151.002 138 153.502 167.5 168.002 163C180.454 159.135 163.002 131 211.002 131C276.095 131 337.542 157.719 345.004 76.4975Z" stroke="#C6CDD2"/>
    </g>
    <defs>
        <filter id="filter0_d_2158_51036" x="0.46875" y="0.554688" width="349.391" height="171.41" filterUnits="userSpaceOnUse" color-interpolation-filters="sRGB">
            <feFlood flood-opacity="0" result="BackgroundImageFix"/>
            <feColorMatrix in="SourceAlpha" type="matrix" values="0 0 0 0 0 0 0 0 0 0 0 0 0 0 0 0 0 0 127 0" result="hardAlpha"/>
            <feOffset dy="4"/>
            <feGaussianBlur stdDeviation="2"/>
            <feColorMatrix type="matrix" values="0 0 0 0 0 0 0 0 0 0 0 0 0 0 0 0 0 0 0.24 0"/>
            <feBlend mode="normal" in2="BackgroundImageFix" result="effect1_dropShadow_2158_51036"/>
            <feBlend mode="normal" in="SourceGraphic" in2="effect1_dropShadow_2158_51036" result="shape"/>
        </filter>
    </defs>
</svg>
