<svg width="414" height="287" viewBox="0 0 414 287" fill="none" xmlns="http://www.w3.org/2000/svg">
    <g filter="url(#filter0_d_2143_48047)">
        <path d="M16.4978 90.5003C43.4983 33.0001 109.998 1.00001 198.498 1.00005C277.923 1.00008 404.176 27.6661 408.498 130C409.883 162.802 374.935 203.455 340.497 220.5C290.997 245 283.997 272.5 270.997 277C251.602 283.714 256.321 255.412 240.497 247.5C194.447 224.475 141.498 260 82.4981 242C12.0978 220.522 -11.2608 149.615 16.4978 90.5003Z" fill="white"/>
        <path d="M16.4978 90.5003C43.4983 33.0001 109.998 1.00001 198.498 1.00005C277.923 1.00008 404.176 27.6661 408.498 130C409.883 162.802 374.935 203.455 340.497 220.5C290.997 245 283.997 272.5 270.997 277C251.602 283.714 256.321 255.412 240.497 247.5C194.447 224.475 141.498 260 82.4981 242C12.0978 220.522 -11.2608 149.615 16.4978 90.5003Z" stroke="#C6CDD2"/>
    </g>
    <defs>
        <filter id="filter0_d_2143_48047" x="0.609375" y="0.5" width="412.43" height="286.021" filterUnits="userSpaceOnUse" color-interpolation-filters="sRGB">
            <feFlood flood-opacity="0" result="BackgroundImageFix"/>
            <feColorMatrix in="SourceAlpha" type="matrix" values="0 0 0 0 0 0 0 0 0 0 0 0 0 0 0 0 0 0 127 0" result="hardAlpha"/>
            <feOffset dy="4"/>
            <feGaussianBlur stdDeviation="2"/>
            <feColorMatrix type="matrix" values="0 0 0 0 0 0 0 0 0 0 0 0 0 0 0 0 0 0 0.24 0"/>
            <feBlend mode="normal" in2="BackgroundImageFix" result="effect1_dropShadow_2143_48047"/>
            <feBlend mode="normal" in="SourceGraphic" in2="effect1_dropShadow_2143_48047" result="shape"/>
        </filter>
    </defs>
</svg>
